<?xml version="1.0" standalone="no"?>
<!DOCTYPE svg PUBLIC "-//W3C//DTD SVG 1.1//EN" "http://www.w3.org/Graphics/SVG/1.1/DTD/svg11.dtd" >
<svg xmlns="http://www.w3.org/2000/svg">
<metadata></metadata>
<defs>
<font id="family_guyregular" horiz-adv-x="546" >
<font-face units-per-em="2048" ascent="1638" descent="-410" />
<missing-glyph horiz-adv-x="1024" />
<glyph horiz-adv-x="0" />
<glyph unicode="&#xd;" horiz-adv-x="1024" />
<glyph unicode=" "  horiz-adv-x="1024" />
<glyph unicode="&#x09;" horiz-adv-x="1024" />
<glyph unicode="&#xa0;" horiz-adv-x="1024" />
<glyph unicode="!" horiz-adv-x="749" d="M39 -35q0 74 37 129q41 63 112 64q16 0 37 -4q16 29 17 59q0 25 -13 51q16 -41 25 -59q16 -31 37 -51q4 4 67 22q45 14 68 39l139 -82q51 -37 51 -137q0 -301 -278 -291l-59 2q-150 23 -203 96q-37 51 -37 162zM80 967q0 -268 26 -392q25 -27 173 -55l59 2q25 18 80 19 q18 0 56 -2t56 -2q94 0 138 45q37 76 65 321q23 188 23 273q0 268 -60 342q-68 86 -309 86q-121 0 -223 -27q-84 -135 -84 -610zM92 479l27 19l47 -72l-27 -16zM139 12v-172q49 -43 92 -43h162q45 134 45 193q-25 66 -159 65q-96 0 -140 -43zM139 410l27 16l104 -262l-28 -4 zM408 193l61 155l27 -20l-64 -140zM469 348l88 129l27 -18l-88 -131z" />
<glyph unicode="&#x22;" horiz-adv-x="1021" d="M82 1288q0 76 4 152q96 16 182 16q109 0 250 -16q-23 -231 -22 -484q0 -45 2 -213q-23 -2 -52 -2q-106 0 -309 25q-55 324 -55 522zM578 1440q78 12 155 12q113 0 271 -22l4 -152q6 -193 -54 -535h-329q-47 248 -47 697z" />
<glyph unicode="#" horiz-adv-x="1800" d="M10 299q35 113 88 242q131 8 238 8h84q74 219 117 321q-49 -4 -103 -4q-37 0 -178 6q41 123 104 256q72 5 193 5h78q33 96 110 301q102 6 177 6q74 0 129 -4l-19 -62l-88 -250q96 12 184 11l136 -2q78 197 122 297q72 6 117 6q78 0 187 -6q-41 -150 -107 -314q78 2 152 2 q86 0 151 -4q-45 -152 -102 -254l-301 -4q-57 -166 -123 -303h51l201 -4q-33 -129 -105 -248h-47q-51 0 -196 -4q-29 -90 -111 -287q-53 -8 -164 -8q-94 0 -137 4q35 141 94 291q-117 -8 -205 -8q-53 0 -100 2q-61 -164 -111 -281q-80 -8 -151 -8q-66 0 -158 6 q41 117 109 295q-178 -4 -316 -4zM735 549l301 2q45 131 119 315h-70l-237 -2z" />
<glyph unicode="$" horiz-adv-x="1046" d="M168 418q139 51 193.5 123.5t48.5 216.5l-11 260q-8 221 195 358q0 66 4 211q76 12 190 12h52q0 -61 -4 -147q86 18 145 18q33 0 59 -2q37 -195 37 -366q0 -27 -4 -129q-109 -18 -141 -119q-16 -53 -19 -201l-2 -178q-2 -150 -30 -223q-35 -90 -144 -170v-68 q0 -141 -8 -217q-63 -8 -121 -8q-59 0 -127 8l6 160q-76 -35 -174 -57q-111 254 -145 518z" />
<glyph unicode="%" horiz-adv-x="2168" d="M43 1092q0 201 137 335t338 134q195 0 329 -137t134 -332q0 -197 -136 -332t-333 -135t-333 135t-136 332zM440 -16q645 988 1108 1572q233 -4 342 -16q-690 -885 -1126 -1565q-35 -2 -78 -2q-150 0 -246 11zM545 928q0 -39 28.5 -66.5t67.5 -27.5q41 0 69.5 26.5 t28.5 67.5t-28.5 68.5t-69.5 27.5t-68.5 -27.5t-27.5 -68.5zM1292 428q0 201 137.5 335t337.5 134q195 0 329 -137t134 -332q0 -197 -136 -332t-333 -135t-333 135t-136 332zM1794 266q0 -41 28.5 -68.5t69.5 -27.5q39 0 68 27.5t29 66.5q0 41 -29 68.5t-70 27.5 q-39 0 -67.5 -27.5t-28.5 -66.5z" />
<glyph unicode="&#x26;" horiz-adv-x="915" d="M33 776q0 150 104 250q98 97 250 117l-4 28q-90 -2 -207 -14q-14 96 -16 184q164 25 315 25q61 0 150 -8q2 -43 2 -88q0 -33 -2 -129q178 -31 319 -119q-82 -295 -188 -430q-35 20 -58 20q-72 0 -71 -69q0 -31 30 -54q-113 -27 -112 -129q0 -115 153 -124q31 -92 43 -175 q-57 -37 -112 -55q2 -33 2 -172q0 -29 -2 -59q-47 -4 -113 -4q-49 0 -170 6q2 18 16 219q-96 23 -155.5 96.5t-59.5 171.5q0 113 109 211q-223 90 -223 301z" />
<glyph unicode="'" horiz-adv-x="540" d="M82 1288q0 76 4 152q96 16 162 16q90 0 270 -26q12 -113 12 -166q0 -203 -57 -521q-160 2 -336 23q-55 324 -55 522z" />
<glyph unicode="(" horiz-adv-x="651" d="M31 559q0 299 141 612q103 226 326 543q98 -53 200 -160q-270 -426 -270 -847q0 -397 238 -805q-125 -106 -363 -195q-272 418 -272 852z" />
<glyph unicode=")" horiz-adv-x="688" d="M63 -121q270 434 271 836q0 346 -246 803q119 92 367 196q264 -401 264 -866q0 -582 -453 -1129q-109 74 -203 160z" />
<glyph unicode="*" horiz-adv-x="858" d="M68 1038q20 123 77 277q74 -16 183 -58q-4 78 -4 127q0 33 2 60q102 14 194 14q47 0 92 -2q4 -33 4 -82q0 -53 -4 -110q123 47 179 59q57 -113 100 -268q-59 -27 -182 -62q78 -96 110 -149q-84 -88 -225 -178q-41 47 -113 155q-78 -117 -108 -153q-117 61 -240 159 q27 43 113 156q-117 31 -178 55z" />
<glyph unicode="+" horiz-adv-x="1026" d="M37 739q0 37 6 101q115 12 358 16q6 199 21 354l147 4h142q-18 -158 -21 -360q217 0 365 -2q6 -106 6 -168q0 -39 -2 -131q-133 10 -250 10q-66 0 -117 -2q0 -205 17 -358q-129 -10 -199 -10q-55 0 -94 6q-14 184 -15 364l-237 -6l-115 -8q-12 98 -12 190z" />
<glyph unicode="," horiz-adv-x="583" d="M78 -381q33 246 33 557q-1 125 -7 328q129 16 228 16q125 0 252 -20q20 -100 20 -211q0 -614 -526 -670z" />
<glyph unicode="-" d="M0 647q0 57 6 250q141 6 250 6q156 0 266 -12q4 -61 4 -164q0 -102 -6 -225q-238 37 -395 37q-16 0 -123 -4q-2 55 -2 112z" />
<glyph unicode="." horiz-adv-x="575" d="M39 68q0 74 37 129q41 63 112 63q16 0 37 -4q16 29 17 59q0 25 -13 52q16 -41 25 -60q16 -31 37 -51q4 4 67 23q45 14 68 38l139 -81q51 -37 51 -138q0 -301 -278 -291l-59 3q-150 23 -203 96q-37 51 -37 162zM92 582l27 18l47 -72l-27 -16zM139 -57q49 -43 92 -43h162 q45 133 45 192q-25 66 -159 66q-96 0 -140 -43v-172zM139 512l27 16l104 -262l-28 -4zM408 295l61 156l27 -21l-64 -139zM469 451l88 129l27 -19l-88 -131z" />
<glyph unicode="/" horiz-adv-x="956" d="M-2 -90q387 1020 674 1573q49 4 116 4q121 0 236 -8q-449 -891 -692 -1571q-76 -8 -160 -8q-96 0 -174 10z" />
<glyph unicode="0" horiz-adv-x="1384" d="M16 1251q0 -6 52 117q-2 -8 -21 -47q-12 -27 -12 -41q0 -8 4 -14q55 37 53 37q6 0 5 -2.5t5 -2.5q37 0 86 84q43 74 43 99q0 33 -22 43q-76 -53 -111 -174q27 106 105 186q35 -23 35 -55q0 -31 -82 -154q-4 -2 8 -2q27 0 45 31q2 6 8 30q12 14 35 44l-31 -50v-14 q49 12 49 49q2 0 4 -5t9 -5q4 4 47 31q-74 115 -117 176q-47 -20 -84 -109q6 31 80 119q55 -70 125 -178q8 4 55 31.5t53 27.5q15 0 60 -45l-13 6q-111 -59 -219 -100q76 20 172 125q4 2 -8 2q-14 0 -207 -133q0 -8 17 -8l-123 -47q-63 -29 -94 -60l262 -409q-6 23 -53 92 q-33 39 -115 145q-104 143 -105 180zM68 1376l51 121h8l-51 -125zM90 1315v24h8v-24h-8zM92 1237q25 10 70 33q-18 -10 -60 -35q8 -37 9 -39q8 -27 20 -29l307 133q-279 -137 -303 -137q-16 0 -29 29q-8 23 -14 45zM168 1272q41 20 125 63q106 53 129 54q18 0 41 -25 q-20 20 -39 20q-18 0 -131 -53q-41 -20 -125 -59zM184 1122v11h25v-11h-25zM195 1090v8l24 12l2 -8zM217 1128v9h14v-9h-14zM225 1038l25 19l6 -8l-27 -19zM233 1106v10h15v-10h-15zM260 1053v8h14v-8h-14zM276 1057v10h15v-10h-15zM289 819l8 4l39 -86h-6zM299 967v8l98 43 l2 -6zM303 926q6 4 62 30q12 -12 22 -28q-10 18 -29 18q-25 0 -55 -20zM309 907q20 -20 27 -20q6 0 31 12q-18 -18 -29 -18q-16 0 -29 26zM313 1178v6l78 41l4 -8zM336 444q0 20 63 52q0 4 -2 14t-2 14q0 8 29 51q-25 -35 -25 -53q0 -25 15 -24q4 2 35 18q-33 -4 -33 -43 q0 -18 24.5 -34.5t42.5 -16.5q6 0 14.5 2t10.5 2v-55q-8 -8 -41 -31q-18 -12 -18 -31q0 -33 22 -39q12 39 25 56q0 -4 -8.5 -22.5t-8.5 -29.5q0 -16 17 -22h-21l-39 -471h-80l39 600q-2 0 -8 14q-18 8 -34.5 17.5t-16.5 31.5zM336 850q25 14 29 14h18q-16 -4 -47 -14z M373 711l26 8l-6 -8h-20zM379 772v8h24v-8h-24zM379 1087q29 14 92 52q2 2 -2 8q6 4 6 -8q0 -6 -96 -52zM385 739v9h25v-9h-25zM406 1227h12q12 0 45 -70q-31 70 -57 70zM414 690h248h-39q-10 0 -21 2h-10q-23 0 -37 -2q-57 -43 -57 -82q0 -10 4 -18q-2 10 -13 33 q-55 -29 -55 -39q0 16 64 45q12 8 37 59q-8 2 -121 2zM418 743v11h18v-11h-18zM428 713v8h25v-8h-25zM432 1069v8l14 6l3 -8zM444 934v8h31v-8h-31zM449 889q41 25 75 24q4 0 4 -2h9q-31 0 -88 -22zM455 1079v11h20v-11h-20zM465 1032v6l106 35v-8zM477 766v10h15v-10h-15z M477 838v8l74 20v-8zM477 977v8l55 23l3 -9zM477 1247v8l12 7l3 -9zM487 1085v9h31v-9h-31zM489 1348v47h11v-47h-11zM498 772v8h30v-8h-30zM498 1208v11l53 6v-11zM500 248h24q6 16 19 51q-8 -14 -8 -31q0 -29 49 -37q-29 8 -84 17zM500 440l6 35h10l-6 -35h-10zM510 1444 q10 -25 39 -76q56 47 76 45q-23 -2 -49.5 -24.5t-26.5 -42.5q-14 35 -39 98zM514 1161v8l12 7l4 -9zM514 1257v9l12 6l4 -6zM522 504q16 25 47 76q242 -190 379 -191q178 0 228 234q0 -14 -15 -58q18 -12 39 -12q14 0 51 10q2 -16 -4 -28q55 -14 162 -50q23 -9 23 -36 q0 -6 -4.5 -16.5t-4.5 -14.5q-14 -4 -55 -27q-2 -4 -2 -18l53 -596h-84l-49 581q-4 4 -12 4q-4 0 -82 -29.5t-92 -33.5q-33 -8 -119 -31q-8 -4 -8 -16l37 -363q-23 -10 -60 -14q-14 -16 -14 -27q0 -4 4 -11t4 -11v-203q-23 -4 -45 -4q-25 0 -51 4l6 639q-143 47 -152 47 q-6 0 -10 -4q-23 -49 -88 -67q45 12 77 59t32 94q0 16 -4 31q20 0 36 14q-16 27 -73 66l-90 61q-43 -29 -60 -59zM530 729v8h31v-8h-31zM530 1171v9h15v-9h-15zM532 1090v8l37 18l4 -8zM547 967v8h14v-8h-14zM553 911v9l16 6l4 -6zM555 1178v6l27 12l2 -6zM557 1339 q115 23 92 23q86 0 86 -127q0 -53 -20.5 -80t-71.5 -51q0 -68 27 -68q4 0 10 2h-16q-4 4 -5 -8q0 -18 13 -47q6 -8 16 -20q-2 -4 0 -13q8 -12 25 -12q-31 -2 -97 -33q10 -23 37 -26h-16q-4 -8 -4 -19q0 -12 8 -26l-12 16q-4 20 -4 24q-4 14 -21 25q6 12 40 24.5t36 20.5z M573 723v8h21v-8h-21zM573 862v10h15v-10h-15zM573 971v10l37 -6v-10zM584 825v11h37v-11h-37zM590 868v11h14v-11h-14zM600 717v10h31v-10h-31zM606 776v8l35 13l2 -9zM633 1415v8h37v-8h-37zM655 838q8 -8 17 -23q20 -37 65 -37h45q74 -59 164 -59q14 0 43 2t43 2 q-61 -14 -86 -14q-84 0 -145 45q-23 25 -31 24q-23 0 -41 -6q-6 -2 -6 -12q0 -16 22 -27q-18 0 -18 -14q-2 35 -36 68.5t-36 50.5zM659 868v11h15v-11h-15zM670 686v8l30 -6v-8zM676 1006v8l33 -13l-4 -8zM678 1423q18 0 59 2l43 2q23 0 31 9q-8 18 -31 18q-4 0 -35 -14 q20 10 54 35q0 -8 -4 -13q14 -6 36 -28q2 -2 19 -2q8 0 55 14q-10 4 -33 -29q-10 10 -32 10q-18 0 -56.5 -2t-56.5 -2h-49zM696 1036q23 -2 66 0q47 2 74 2q10 -20 57 -37q41 -12 72 -12q41 0 198 45q31 8 29 41q4 -34 6 -100l-16 -23l-13 11q-109 -23 -168 -23q-20 0 -64 8 t-65 8q-6 0 -18 -12q16 -39 16 -41q12 -18 35 -18q-29 2 -78 14q-6 2 -59 35q-43 27 -66 27q25 0 56 -5q0 8 8 17q0 -10 -10 -19q10 -14 41 -34q12 8 57 30q-4 8 -24.5 23.5t-26.5 15.5t-14.5 -8t-12.5 -8q8 0 -55 18q20 0 57 -4q8 -2 10 -2q8 0 17 43q-55 10 -109 8z M709 674v8l18 6l2 -6zM762 729h12l80 -61q-4 0 -43 34q-31 29 -49 27zM807 1493q20 37 47 37q6 0 18.5 -5t18.5 -5q14 0 55 12q10 0 -39 -16q20 -18 35 -19q8 0 25.5 11.5t23.5 11.5q37 0 72 -56q23 10 72 43q2 4 -23 15q2 0 13.5 -4.5t17.5 -4.5q8 0 25.5 7.5t25.5 7.5 q-76 -35 -135 -78q0 -41 -39 -59q-14 0 -39 -5q-10 -8 -33 -20q0 2 19 20q-45 35 -45 62q0 6 2 14q-14 8 -35 8q-6 0 -12.5 -5t-12.5 -5t-10 5t-12 5t-19 -10q-2 6 23 31q0 -14 8 -14q55 0 41 2q37 -8 27 -9q6 2 18 15q-12 23 -39 22q-25 0 -47 -14q4 4 10 9t10 9 q-4 12 -20 13q-18 0 -47 -31zM815 920q27 -15 47 -15q-4 0 -9 11.5t-7 13.5q-6 0 -31 -10zM866 1393v18q4 -18 11 -27q12 -22 32 -24q-10 0 -27.5 12t-15.5 21zM897 1042v9h70v-9h-70zM920 879v10h24v-10h-24zM936 1450q16 -8 33 -29q25 12 63 33q-8 10 -26 10 q-6 -2 -35 -16q-4 6 -15 18l66 4q11 -10 25 -10v19q-29 35 -56 34q-39 0 -51 -47q6 0 10 -4q-14 -16 -14 -12zM956 1534v8h27v-8h-27zM973 1036v11l37 -7v-10zM973 1395h39q10 0 24.5 20.5t16.5 32.5h-19q-41 -20 -61 -27v-26zM989 1538v10h70v-10h-70zM1044 723v8h25v-8 h-25zM1065 1534v8l41 -12v-8zM1122 1352v63h8v-63h-8zM1128 483h46q23 -2 47 17q8 8 26 45q-8 0 -21.5 -2t-21.5 -2t-23.5 3t-23.5 3q-8 -37 -29 -64zM1133 1337q0 -25 30 -24q16 0 41 18.5t30 32.5t5 53q-8 -53 -18.5 -162.5t-18.5 -162.5q4 31 12 96l-2 141 q-35 -20 -45 -20q-25 0 -34 28zM1176 629v30h10v-30h-10zM1182 672v41h8v-41h-8zM1182 883v63h8v-63h-8zM1186 737v121h10v-121h-10z" />
<glyph unicode="1" horiz-adv-x="1732" d="M41 864q0 20 23.5 71.5t23.5 72.5q37 39 111 108q29 4 84 8q41 49 186 201q-8 16 -8 37q0 61 69 131q63 63 129 84q53 2 162 31l-49 -54q-12 14 -55 15q-29 0 -78 -35t-41 -35q-14 0 -14 4q0 2 2 2v4q-2 4 -15 4q-33 0 -98 -133q4 -18 23 -49q154 113 172 113 q16 0 57 -17q53 -20 63 -22q51 -18 195 -19q41 0 122 14.5t122 14.5q53 0 177 -114.5t142 -172.5q-59 -53 -86 -124q-53 -12 -53 -56q0 -4 5 -28.5t3 -28.5q-37 -45 -37 -62q0 -18 27 -42.5t33 -30.5q-2 -14 -2 -27q0 -31 14 -55q8 -10 33 -10q16 0 49 27.5t49 27.5 q14 0 14 -4q0 -2 -2 -6q2 -4 17 -4q25 0 57 98q-4 -14 -4 -29q0 -66 74 -110q12 0 28 22q-4 41 17 109v8q0 14 -31 61q0 55 -43 166q-14 35 -74 70q6 31 -28 76q-27 31 -56 63q-2 12 -8 39q-63 45 -104 121q-10 4 -72 4q4 43 -27 92q-16 14 -79 23q-10 66 -62 65 q-14 0 -35.5 -14.5t-34.5 -14.5q-16 0 -48.5 25t-49.5 25q10 0 48 -17.5t57 -17.5q14 0 30.5 13t32.5 13q18 0 82 -67q20 0 68 -17q12 -6 34 -73q2 -8 25 -15q33 -12 37 -14q16 -8 29 -35l20 -45q20 -8 61 -43q20 -27 60 -82q33 -47 39 -86q23 -20 69 -69q10 -45 43 -142 q31 -88 31 -104q0 23 -18 -135q-68 -82 -74 -88q-55 -53 -96 -45q-10 -100 -135 -246q-16 -18 -252 -262q-154 -158 -201 -252q-12 -25 -23 -84q-59 -45 -118 -45q-31 0 -72 18q-47 18 -62.5 39t-25.5 88q-12 80 -148 229q-74 80 -219 242q-61 72 -114 178q-57 117 -74 142 q-61 96 -105 141q0 23 -9 70t-9 71zM55 872q0 -25 9.5 -73.5t9.5 -73.5q16 -12 39.5 -50t36.5 -46q-1 248 114 477h-65q-59 -84 -97 -98q-2 -20 -24.5 -70.5t-22.5 -65.5zM168 678q0 -141 102 -291q55 -80 168 -199l185 -192q53 -57 90 -156q14 -41 41 -121q8 -23 57 -43 q43 -16 74 -16q55 0 98 35q4 37 23 94q92 143 368 428q217 225 217 307q0 16 -4 29q14 -2 29 -2q39 0 68.5 22.5t29.5 61.5t-65 70q-6 -29 -27 -84q-4 29 -25 69q-12 0 -51 -20.5t-55 -20.5q-23 0 -31 2q-94 119 -94 178q0 23 14 41l21 21q-8 31 -8 55q0 14 2 27 q123 131 123 157q0 57 -62 117q-23 20 -110 86q-94 68 -113 68q-41 0 -125 -13.5t-125 -13.5q-115 0 -262 31q-35 25 -53 25q-63 0 -228 -158q-156 -150 -186 -223q-86 -201 -86 -371zM389 760q0 53 35 114q47 82 119 82q84 0 127 -88q26 -55 26 -108q0 -76 -39 -125 q-41 -55 -114 -55q-78 0 -121 73q-33 57 -33 107zM406 758q0 -14 9 -40t9 -34q0 20 35 21q20 0 28 -9q-18 -37 -55 -37q66 -66 119 -65q39 0 85 40t46 77v47h-276zM406 776h274q2 8 2 19q0 39 -48 93t-83 54q-63 0 -100 -63zM571 446q0 51 103 136q96 78 84 151q4 -18 4 -35 q0 -51 -88 -124.5t-88 -127.5q0 -51 65 -51q10 0 39 2t84 8.5t84 6.5h80q6 12 4 47q-4 45 -4 51q18 -31 18 -61q0 -25 -12 -50q-12 -4 -26 -4q-16 0 -48 8.5t-49 8.5q-29 0 -83 -27t-70 -49l12 -14q49 -8 147 -27q88 -18 119 -90h-115q-47 0 -98 26q-2 -2 -2 -10 q0 -6 2 -19.5t2 -21.5t-3 -14t-30 -41q-20 -25 -20 -47q0 -55 55 -55q14 0 25.5 7t23.5 7q16 0 49 -21.5t50 -21.5q39 0 60.5 28.5t15.5 69.5q-8 -63 -13 -76q-16 -37 -63 -36q-18 0 -47 21.5t-43 21.5t-25.5 -7.5t-24.5 -7.5q-31 0 -54 19.5t-23 50.5q0 16 28.5 49t28.5 49 q0 43 -33 115q-4 6 -33 16q-4 12 -4 23q0 18 15 32q-14 6 -74 35q-25 12 -25 49zM723 274q2 -27 2 -26q48 -6 193 -29q0 27 -15 47q-78 35 -119 35h-55q-8 -8 -6 -27zM961 774q0 68 40.5 125t106.5 57q80 0 119 -75q26 -52 26 -107q0 -70 -38.5 -125t-106.5 -55 q-70 0 -111 57q-37 51 -36 123zM977 758q8 -33 18 -68l37 29q2 0 13.5 -16.5t13.5 -18.5l-29 -27q27 -49 78 -49q82 0 131 121q-43 6 -131 14.5t-131 14.5zM977 768q26 -2 262 2v55q-57 117 -131 117q-39 0 -85 -41t-46 -80v-53z" />
<glyph unicode="2" horiz-adv-x="1732" d="M12 678v37h15v-37h-15zM31 748q16 31 57 45q14 0 27 -7l12 -6q-18 0 -35 -8q53 -33 131 -197q-25 47 -55 107q-43 70 -84 80q-8 -12 -8 -25q0 -12 8 -28l-27 45q-8 -16 -6 -39q0 27 -10 33h-10zM51 678v20h15v-20h-15zM66 668q10 -33 45 -72q39 -45 67 -39q-16 14 -59 80 q29 -41 45 -62q33 -35 61 -40q-18 35 -55 73l74 -88q6 4 2 15q-2 6 -6 14q0 27 -21 149q2 -2 8 -14q2 4 2 10q0 12 -8 29q-8 -8 -8 -16q-20 63 -70 67q12 0 68 -29q2 6 -31 39q41 -39 58 -79q2 -6 -2.5 -27t-4.5 -27q12 0 13 15q-4 -18 2 -43q6 6 6 22v-39q2 -20 16 -39 q16 23 21 76q14 6 35 25q45 63 131 192q16 55 102 103q0 10 4 36q16 16 41 50q16 -104 57 -125l5 4q-35 215 -35 186q0 113 69 225q2 4 -4 13q-57 -55 -76 -103l15 43q-2 6 -15.5 21.5t-13.5 25.5q0 8 14.5 29t14.5 27q6 41 12 84q8 53 24.5 80.5t139.5 52.5q10 2 86 2 q319 0 319 -144q0 -23 -9 -69.5t-9 -69.5t21 -33q51 -16 155 -57v-35q-10 -10 -35 -10q-37 0 -147 55q2 94 -160 131q-8 -25 -8 -77q12 12 12 30l10 -69q29 43 29 69l17 -14q16 4 16 10q0 -2 5 -15t5 -22v-34q-8 -8 -39 -9q-14 -72 -16 -118l12 -7l19 31q0 -55 -15 -225 q51 18 93 72.5t36 105.5q0 14 -2 -31v-32q55 -55 53 -70q23 -6 60 -39q66 -96 186 -291q45 14 107 -88q23 33 73 103l-8 -13q29 -29 64 -43q-4 0 -4 -22q-4 4 2 10q-20 14 -66 51q-53 -88 -90 -180q43 -29 68 -29q23 0 28 17q12 39 19 45q0 -37 -8 -113q-8 -49 -49.5 -96 t-88.5 -47q-6 4 -71 22q-27 -12 -21 -57q29 -27 53 -27q18 0 37 39q-2 -14 -2 -33q0 -158 129 -360q-8 0 -27.5 -5t-29.5 -5q-33 0 -98.5 23.5t-98.5 23.5h-59q-4 -4 -4 -13q0 -10 6 -24q-96 -4 -100 -6q-63 -10 -86 -53q4 0 12 -3.5t16 -3.5q12 0 21 11q-49 -45 -64 -138 q8 -8 35 -8q-12 0 -35.5 3t-36.5 3q8 43 54 133q6 4 -13 5q-25 0 -47 -48.5t-16 -72.5l8 -8q12 0 -57 6q16 37 55 110q-29 6 -121 21v-23q0 18 -2 56q-20 0 -61 -9.5t-62 -9.5q-53 0 -76 8q-2 -4 -2 -10q0 -12 9 -33q0 12 -31 29h-35q8 -47 39 -123q-37 -6 -98 -24 q2 35 2 47q0 72 -84 131q41 -39 55 -39q8 0 8 4t8 4q10 0 27 -49q23 -63 29 -76q6 -6 6 12q0 70 -21.5 102.5t-85 56.5t-102.5 24t-84 -22.5t-57 -55.5q10 27 55 57q-29 0 -87 -13.5t-83 -13.5q-33 0 -41 5q-14 6 -51 36l153 428q-31 6 -84 31q-18 14 -40 45q-29 37 -29 54 q0 18 61 104h-26q4 0 5 9t5 13q-18 20 -25 21q-6 -6 9 -23q-25 14 -72 62q-55 53 -55 76zM82 688l12 4l17 -37h-11zM82 725l10 8l74 -106l-10 -6zM129 748l8 8l82 -82l-8 -8zM170 406q0 -55 55 -56q14 0 39 10q39 17 39 37q0 10 -18 45q-33 -14 -45 -12q4 16 -25 49l-2 4 q-43 -66 -43 -77zM217 340q63 -4 88 41q11 -7 29 -19q-39 -59 -66 -59q-14 0 -51 37zM231 489l21 -10l4 10l-20 11zM272 545q0 -27 45 -68q-12 -23 -12 -55q0 -49 37 -49q8 0 18 5l11 5q-12 43 -11 45q14 -14 21 -14v-47h29q-2 31 6 84q4 -2 0 -11q-4 -4 6 -4q12 0 33 33 q2 10 10 51q8 35 8 47q0 25 -55.5 55.5t-83.5 30.5q-8 0 -22.5 -5t-16.5 -5q0 -16 -11.5 -51t-11.5 -47zM295 299q2 0 12 -5t19 -5q23 0 39 22q10 22 22 45l-43 11q-16 -27 -49 -68zM334 662q37 2 151 -70q23 43 58 121q-82 57 -140 57q-14 0 -41 -47q-23 -39 -28 -61z M338 -264h14v-29h-14v29zM348 -309l6 10l52 -41l-9 -10zM412 -344h20v-14h-20v14zM442 -352h37v-15h-37v15zM481 240q0 -29 19 -45q200 63 313 79q-8 35 -8 99q-176 -25 -324 -70v-63zM506 -360h151v-15h-151v15zM528 444q0 -12 2 -20q10 -4 19 -16q6 -53 4 -72q12 31 14 72 q11 12 19 16q4 29 -8 51q-16 -31 -21 -33q-18 33 -18 37q0 -4 -5.5 -15t-5.5 -20zM586 1057l8 153h14l-8 -153h-14zM612 1339q16 -28 39 -24q-10 23 -10 37q0 6 2 12q-6 0 -31 -25zM621 524q14 -31 49 -37l43 -6q14 -4 16 -4v-102h23v127q0 12 -4 16h-7q4 57 -55 57 q-23 0 -43 -15t-22 -36zM637 1114q0 -43 41 -186q92 -49 186 -49q37 0 107 22q82 25 88 49q10 41 16 94l8 89q-4 -2 -18 -12.5t-18 -10.5q14 106 14 154l-9 -8q-10 -7 -20 -7q-12 0 -8 23q2 10 6 33l-16 -17v101h-35q10 -76 -72 -76q-53 0 -53 53q0 29 6 37h-53 q0 -29 14 -41q-18 -20 -31.5 -39.5t-13.5 -52.5t10 -43h48q2 0 14 7l12 7v-8q-23 -14 -45 -14q-55 0 -55 47q0 6 3 19t3 20q-10 -2 -21 -2q-29 0 -43 24q-66 -127 -65 -213zM645 1391q113 45 211 45q74 0 174 -23q125 -29 154 -70q18 93 18 132q0 70 -135 106 q-96 27 -172 27q-133 0 -217 -52q-2 -14 -17.5 -73.5t-15.5 -67.5v-24zM662 535v12h34v-12h-34zM698 1372q6 -20 13.5 -39.5t33.5 -19.5q56 0 60 59q-33 4 -90 17q0 -16 -17 -17zM707 1395h20v12h-20v-12zM717 532zM725 190q4 47 18 60q0 -74 7 -109q4 4 8 11.5t8 11.5 q2 -14 -2 -25q-14 -12 -33 -12q-10 16 -6 63zM737 1341v11l19 10l4 -12zM737 1403h37v12h-37v-12zM745 1386l46 -8v15l-46 8v-15zM768 975q0 18 18 39q-12 -12 -12 -37q18 -4 47 -2q35 4 47 0q-41 4 -86 -19v-34q14 -4 68 -4q21 -1 31 22q0 -39 -27 -39l-14 8h-56 q-16 35 -16 66zM784 1411l199 -8v12l-199 8v-12zM788 -324l9 60h12l-8 -60h-13zM823 258h154q0 12 4 37t4 37q0 41 -27 57h-135v-131zM838 283q35 -18 51 -19q88 0 88 51q0 23 -13.5 44.5t-35.5 21.5q-39 0 -90 -16v-82zM846 356l8 -71q50 2 107 0v63q-23 25 -31 25 q-33 0 -84 -17zM862 1337q16 -16 45 -16q66 0 62 53q-100 0 -107 -2v-35zM870 1395l91 -15v11l-91 16v-12zM893 1341v11l18 10l4 -12zM905 315l10 -4l11 21l-11 4zM979 -262q-8 -27 6 -56.5t43 -25.5q-20 -2 -49 31v51zM987 1397l129 -33v12l-129 31v-10zM993 274 q16 0 47 -5t45 -5q39 0 78 25v59q-27 25 -43 25h-127v-99zM1071 1280q0 -20 29 -20v28q-4 0 -14.5 -4t-14.5 -4zM1110 483q47 -2 49 -51q4 -57 19 -65q0 61 6 92q16 -4 39 -15q28 37 71 105q-41 18 -120 41q-59 -76 -64 -107zM1137 504l49 57l12 -6l-51 -59zM1147 1346 l49 -52l8 9l-51 51zM1149 268q31 14 31 49q0 18 -9 41h27q10 0 135 -39q0 -66 -16 -108q-68 29 -168 57zM1184 487l33 58l12 -4l-35 -60zM1196 1288q4 -18 14 -39q15 10 15 39h-29zM1200 1190v43h12v-43h-12zM1206 1126v45h15v-45h-15zM1214 479l13 -6l33 59l-13 5z M1219 -377h122v-12h-122v12zM1249 -205v-14h21v14h-21zM1274 -197h35v-14h-35v14zM1280 668q0 -6 22.5 -52.5t26.5 -62.5q111 84 160 86q-16 41 -64 123q-61 -10 -137 -41q0 -8 -4 -26.5t-4 -26.5zM1327 -190h45v-13h-45v13zM1333 518q0 -35 41 -65q8 -4 74 -39 q-6 -12 -6 -25q0 -27 28 -47q4 12 5 23q0 10 -4.5 30.5t-4.5 30.5q0 35 33 63q-8 -29 -8 -92h51q14 18 39 76t25 76q0 14 -32 51t-50 37q-47 0 -115 -37q-76 -41 -76 -82zM1352 -369h34v-12h-34v12zM1458 299q8 -8 45 -28.5t45 -20.5q41 0 88 50t47 91v35q-72 0 -98 25 q-12 -35 -41 -66q16 -25 49 -31t35 -10q0 -6 -4 -10q-25 4 -70 27.5t-63 27.5q0 -4 -5 -18.5t-5 -24.5q23 -18 47 -51q-29 6 -49 41q-20 -20 -21 -37zM1698 668q0 12 71 133q31 0 31 -25q0 -6 -26.5 -59t-22.5 -80q-2 4 -10 16q-14 -16 -25 -16q-18 18 -18 31zM1704 524 l8 27h12l-10 -31z" />
<glyph unicode="3" horiz-adv-x="2220" d="M92 631q0 180 88 260q51 45 68 98q6 18 16 107q6 47 41 106q18 31 70 66q43 27 87 55.5t91 108.5q23 39 68 118q25 33 100 45q35 6 172 -2q35 -2 104 6l70 7q41 0 125 -27t123 -27h209q25 0 90 -51q78 -61 90 -65q53 -25 160.5 -46.5t152.5 -39.5q72 -29 113 -95l12 -41 q4 -16 68 -92q49 -60 49 -166q0 -45 -10 -79q-16 -53 -17 -123q0 -31 6 -111q6 -68 5 -108q-2 -27 -35 -84q-23 -37 -47 -82q-18 -53 -56 -156q-37 -94 -116 -180q-10 -12 -30 -64.5t-40 -74.5q-74 -72 -248 -156q-45 -12 -160 -51q-121 -49 -165 -49q-25 0 -84.5 14 t-85.5 14q-199 6 -410 25q-25 2 -102 53q-109 72 -129 82q-63 23 -179 76q-43 29 -61 98q-6 18 -21 119q-27 43 -88 157q-94 190 -94 355zM389 653q0 -27 35 -39t37 -16q111 -137 160 -170q96 -63 264 -98q70 -14 235 -15q104 0 162 9q184 27 336 137q82 59 164 180 q35 51 102 156q4 6 37 34q21 18 21 43q0 35 -21 50q-16 4 -39 16q-14 27 -49 78q-74 113 -201 196q-190 127 -403 127q-555 0 -754 -483l-24 -90q-14 -51 -45 -74q-16 -12 -17 -41zM426 639v37h10v-37h-10zM764 670q0 66 54 119t120 53q72 0 123 -50t51 -122q0 -70 -50 -120 t-120 -50q-68 0 -123 51t-55 119zM776 670q0 -35 15 -74q20 -47 49 -49q12 0 112 -10q43 -4 66 -5q37 0 65 62q23 47 23 76q0 39 -27 92l-243 20q-27 2 -45 -43q-14 -37 -15 -69zM836 791q147 -13 225 -13q-66 49 -123 49q-51 0 -102 -36zM850 537q47 -25 92 -25q30 0 59 10 q-47 4 -151 15zM870 926v10l123 -31v-10zM924 645v25q12 -4 16 -17q4 -10 -2 -16zM993 88q0 -174 133 -174q37 0 105 27q-6 33 -8 141q-18 10 -170 104q6 6 10 4q39 -25 116.5 -71.5t131.5 -46.5q14 0 24 10q-14 0 -24 12q14 0 39 6q-4 6 -27 27q4 4 13.5 7t13.5 7 q-14 4 -39 13q12 27 8 43q-6 -2 -26.5 -17.5t-28.5 -15.5q-25 0 -88 59q-51 49 -72 78h-55q-55 -115 -56 -213zM1126 299q70 -102 103 -102l20 10q12 2 27 0q18 -4 24 -4t29 22q-16 12 -39 37q12 -10 43 -24h82q-84 84 -92 84l-76 -11q-78 -12 -121 -12zM1231 -6 q8 -23 8 -60q68 -29 94 -28q39 -1 70 28q-20 20 -51 62q-6 12 -4 74q-27 -6 -54 -7q-27 0 -55 7zM1237 184q6 0 16 -6q13 -3 31 15q-8 4 -16 4q-14 0 -31 -13zM1239 473q43 37 123 82q-12 12 -23 12h27q16 -2 20 -2q11 -10 11 -20q0 -12 -88 -90q27 29 73 86q6 4 -10 4 q-10 0 -133 -72zM1284 735q78 -33 78 -51q0 -4 -23 -53q12 31 9 61q-2 2 -64 43zM1323 207q6 -14 8 -41q10 -6 23 -21q10 -47 10 -151q29 -23 72 -23q36 1 59 17v28q-61 23 -61 64q0 16 8 35q-2 0 -8.5 -2t-12.5 -2q-10 0 -24 18q2 10 2 27l-8 4q-8 4 -9 14q0 8 7 14l10 11 q2 4 0 10q-4 10 -4 12h-56zM1389 172q29 2 32 -6q-12 -29 -12 -41h25q34 20 34 45q0 55 -65 51l18 -20q-8 -6 -32 -29zM1421 776q0 61 52.5 112.5t113.5 51.5q63 0 113.5 -50.5t50.5 -113.5q0 -70 -47 -118t-117 -48q-66 0 -116 50.5t-50 115.5zM1436 739q0 -27 27.5 -57.5 t54.5 -30.5q86 0 192 35q4 0 19.5 40t15.5 50q0 27 -16.5 60.5t-38.5 44.5l-254 -68v-74zM1442 829l237 60q-27 39 -92 39q-86 0 -145 -99zM1468 934l82 74l4 -9l-81 -73zM1522 641q49 -16 65 -16q54 0 111 43q-68 -12 -176 -27zM1561 764l8 24q18 -16 18 -24q-6 -6 -14 -6 q-6 0 -12 6zM1896 895l13 4q0 -39 -4 -45q2 25 -9 41z" />
<glyph unicode="4" horiz-adv-x="3035" d="M27 324q0 51 55 190h465q131 0 354 86q242 94 297 188q8 45 43 130q-10 18 -72 75q-33 31 -32 70q0 51 59 90q31 18 94 59l21 162q25 80 116 80q37 0 99 -27q66 66 86 66q14 0 27.5 -7t15.5 -7q29 53 74 96q57 49 108 49q57 0 132 -71.5t73 -71.5q14 0 43 6t43 6 q53 0 91 -33t34 -33q12 0 26.5 6.5t26.5 6.5q63 0 133 -80q119 41 131 41q160 0 164 -176q33 -6 90 -29q4 -20 39 -57q27 -4 92 -21q33 -8 78 -54t45 -79v-530q0 -18 -14 -35q-29 -27 -31 -31q12 -31 12 -59q0 -61 -48 -103.5t-109 -42.5q-57 0 -80 15q-41 -31 -41 -105 q-2 -84 -12 -104q-31 -53 -132 -62q-2 -18 -26 -59q-31 -12 -86 -51q-41 -61 -49 -68q-29 -27 -78 -26q-16 0 -55 19t-56 19l-51 -41q-53 -39 -121 -38q-63 0 -142 59t-89 59q-23 0 -76 -19.5t-76 -19.5q-88 0 -129 30t-113.5 110t-111.5 108q-176 133 -381 183 q-135 33 -223 32q-96 0 -297 -53t-297 -53q-51 0 -98 78q-41 70 -41 127zM39 324q0 -94 102 -179q0 -39 8.5 39t8.5 115q-23 68 -72 190q-4 -12 -29 -90q-18 -57 -18 -75zM106 500q70 -131 70 -295q0 -29 -2 -58q131 27 361 60q211 31 237 31q166 0 328 -64 q119 -47 295 -160q6 6 28 41q17 27 17 43q0 47 -82 107q-10 8 -94 20q-90 14 -113 25q-70 29 -94 86q63 66 160 92l141 25q29 23 28 61q-23 0 -65.5 -2t-65.5 -2q-115 0 -145 76q43 47 111 78q8 4 127 49q-106 53 -131 53q-16 0 -158 -86q-164 -100 -223 -123 q-51 -20 -226 -43q-182 -25 -313 -25t-191 11zM1085 307q113 -57 258 -82q23 64 84 125l-45 53q-29 33 -47 33q-35 0 -122 -29.5t-128 -52.5v-47zM1124 573q84 -43 152 -43h135q0 60 29 142q-12 0 -39 7t-41 7q-18 0 -154 -43q-59 -18 -82 -70zM1163 1063q0 -78 92 -133 q-35 -45 -34 -111q0 -66 67 -65q14 0 19.5 6t19.5 6q16 0 32.5 -21.5t31.5 -39.5q39 -6 114 -33q-78 -78 -78 -119q0 -8 3 -16q-43 -70 -44 -101q0 -35 68 -86q-94 -61 -94 -106q0 -16 33 -29q23 -6 47 -12q-25 -25 -25 -41q25 -12 55 -37q-4 -20 -4 -41q0 -41 19 -70 q78 -41 153 -41q14 0 26.5 13.5t27.5 13.5q14 0 25.5 -19.5t27.5 -19.5q25 0 59 39q61 -39 105 -39q55 0 71 19q8 8 29 75q53 18 98 58q4 70 31 184q82 31 82 119q0 39 -20 69q-23 18 -52 50q33 84 13 147t-103 76q-43 4 -129 14v10q18 10 60 11q90 0 148 -47.5t58 -135.5 q0 -35 -12 -75q63 -70 64 -125q0 -20 -4 -23q0 2 -2 4q-4 -27 -78 -115q-18 -23 -22.5 -88t-18 -85.5t-50 -39t-44.5 -26.5q-31 -63 -37 -74q-25 -29 -76 -29q-27 0 -79 9.5t-79 9.5q-18 0 -31 -2q-2 0 -7 11t-21 11q-14 0 -40 -6t-40 -6q-160 0 -172 92q0 -29 -33 -59 q35 -27 91.5 -93.5t86.5 -88.5q51 -37 127 -37q57 0 164 53q39 -47 94 -86q68 -45 119 -45q49 0 109 29l63 63q78 -53 117 -53q45 0 80 31.5t35 76.5q33 14 84 43q2 25 16 60q41 -6 90 13.5t57 57.5q6 33 4 76q-4 49 0 56q10 25 46 75q53 -27 98 -26q131 0 131 143 q0 33 -10 72q51 29 51 82q0 16 -18.5 50t-18.5 42q0 23 10 73t8 74q-2 8 -18 28.5t-16 35.5q0 20 26.5 75.5t26.5 75.5q0 53 -55.5 109.5t-108.5 56.5q-12 0 -27 -4q-6 4 -36 12q-12 23 -23 43q-16 25 -33 31q-25 0 -76 14q2 20 3 41q0 133 -140 133q-53 0 -131 -51 q-29 29 -55 60q-37 33 -78 32q-29 0 -47 -18q18 -96 18 -152q0 -23 -2 -36q63 -68 64 -117q0 -74 -31 -100q-6 18 -6 43q0 10 2 30v29q0 70 -49 119q6 37 6 75q0 180 -133 181q-29 0 -111 -29q-61 147 -174 147q-66 0 -126 -66.5t-66 -66.5q-14 0 -19.5 7.5t-19.5 7.5 q-39 0 -74 -80q-51 39 -111 39q-78 0 -102 -80q-10 -33 -22 -162q-2 -6 -78 -41q-61 -29 -62 -94z" />
<glyph unicode="5" horiz-adv-x="2172" d="M16 63q0 37 111 142q-2 4 -25 33q-18 23 -18 34q0 53 111 54q18 0 65 -12.5t66 -12.5q27 0 118 40t95 58q45 156 45 215q0 23 -29 177q-27 147 -57 274q-25 12 -74 43v203q0 49 30.5 99t77.5 50q8 0 25.5 -4t26.5 -4q4 0 69 47q88 63 215 64q12 0 34 -4.5t34 -4.5 q6 0 26.5 25t30.5 25q35 0 74 -66q20 -33 47 -86q74 35 152 35q152 0 247 -55q41 -23 66 -89q20 -55 20 -110q0 -80 -20 -119q-78 -150 -266 -213q-57 -16 -113 -35q-76 -31 -76 -75q20 0 60 -3q16 -31 16 -36q0 -14 -16 -31q39 -39 69 -39q27 0 138 43q102 39 138 60.5 t85 121.5q6 31 18.5 97.5t50.5 66.5q39 0 52.5 -59.5t23.5 -59.5q12 0 68.5 26t68.5 26q29 0 43 -46q12 -4 41 -24q0 -35 -20 -78q10 -31 8 -43q-8 -23 -54 -55.5t-73 -38.5q-33 -6 -66.5 -14.5t-58.5 -26.5q-31 -23 -71 -76q-47 -57 -70 -78l20 -28q14 -16 25 -17 q14 0 45 8.5t45 8.5q61 0 156 -60q35 43 71 86q53 57 86 58q12 0 15 -5l8 -10q29 0 92 -4q14 -8 33 -24q37 -137 37 -148q0 -25 -16.5 -92.5t-16.5 -91.5q0 -14 25 -39q23 -6 59 -31q35 -45 35 -121q0 -102 -62 -233q-74 -156 -168 -156q-55 0 -265 131t-216 131 q-12 0 -43 -24q-39 -29 -45 -33q-106 -53 -195 -76q-8 -2 -77 -2q-158 0 -318 123q-135 104 -233 258q-82 -39 -133 -41q-12 -2 -84 4q-51 4 -86 -10q-33 -41 -117 -121q-27 -18 -82 -18q-27 0 -90.5 46t-63.5 70zM25 63q0 -10 10 -18t20 -14q33 37 101 119q41 -55 90 -89 q-33 -6 -68 -36.5t-41 -61.5h86q23 0 139 133l140 4q82 6 135 33q74 39 154 125q8 -6 4 -10q-39 -37 -109 -111q100 -156 227 -256q156 -121 314 -121q303 0 631 449q10 -6 77 -57q49 -37 62 -37q12 0 53 47t82 47q8 0 19.5 -4t13.5 -4q30 119 26 252q-31 27 -37 26 q-29 0 -59 -35q-8 8 -6 13q41 27 86 41q-29 57 -47 57h-78q-14 -45 -49 -68q-6 8 -4 13l33 32v31h-31q-74 -61 -121 -139q37 -37 59 -76q-8 -8 -10 -4q-84 135 -221 135q-86 0 -156 -35q-43 -25 -131 -94q37 84 180 123q-51 57 -221 141q-154 76 -180 76q-31 0 -55 -47 q4 -2 24.5 -19.5t30.5 -17.5q6 0 14.5 4t14.5 4q59 0 59 -55q0 -47 -63 -47q-66 0 -66 43q0 20 19 47q-18 14 -46 37q-102 -92 -360 -92q-109 0 -184 8q-10 -66 -39 -164q-14 -29 -115 -69q-88 -37 -106 -37q-16 0 -65.5 16t-65.5 16q-92 0 -93 -45q0 -12 17 -34 q23 -29 24 -33q-119 -119 -118 -142zM68 16q29 -29 47 -28q16 0 96 80l-53 55q-18 -10 -52 -49t-38 -58zM227 129l78 88l10 -4l-79 -90zM432 1116q12 -12 54 -28.5t61 -16.5q96 0 96 98q0 49 -25 101q6 8 11 4q31 -61 30 -109q0 -55 -51 -84q-43 -27 -100 -20 q51 -190 78 -393q6 -8 18 -17q197 -12 174 -12q199 0 396 88q18 14 18 37l-18 20q-18 -8 -89 -36q-53 -23 -65 -23q-23 0 -39 29q66 63 272 137q193 68 263 160q-145 57 -146 215q0 68 19 112q16 27 41 72l-168 27q-47 0 -164 -39q-109 -35 -166 -29q2 -53 -30 -86t-85 -33 q-106 0 -106 107q0 47 29.5 80.5t76.5 33.5q10 0 36 -12t36 -12q18 0 59 55q-14 0 -40.5 6t-39.5 6q-98 0 -180 -47q-2 -2 -57 -39q-37 -25 -47 -24q-8 0 -25.5 4t-26.5 4q-84 0 -96 -164zM721 1384q47 13 176 66q-25 45 -80 45q-31 0 -63.5 -21.5t-32.5 -52.5v-37z M727 1356q45 -55 90 -56q73 0 96 72l-10 62q-10 -2 -32.5 -21.5t-32.5 -19.5q-8 0 -12.5 4t-12.5 4q-39 0 -86 -45zM907 1462q58 12 160 35q-41 39 -68 39q-20 0 -53 -26.5t-39 -47.5zM924 1419h86q14 4 82 27q0 6 -5.5 19.5t-5.5 19.5h-28q-12 -4 -28.5 -21.5t-20.5 -19.5 q-16 16 -31 16q-8 0 -24.5 -5t-24.5 -5v-31zM956 1556q60 -16 101 -22q-29 53 -58 53t-43 -31zM1167 549q29 -27 56 -27q14 0 34.5 11.5t20.5 25.5q0 10 -5 18.5t-5 10.5q-20 10 -45 10q-39 0 -56 -49zM1270 678q117 -53 293 -148q47 57 143 156q23 18 127 41q53 18 129 84 v31q-23 4 -55 2l-54 -4q6 6 74 24q45 13 45 56q0 10 -20 24q-53 -23 -158 -53q43 27 127 55l-10 49q-23 -6 -90 -32q-49 -18 -62 -19q-10 0 -16 6q-20 82 -45 113h-29q-14 -23 -45 -145q-23 -86 -82 -136q-45 -35 -141 -69q-84 -31 -131 -35zM1591 -100l238 -148 q197 -119 239 -119q86 0 158 164q60 137 60 221q0 92 -76 129q10 -37 10 -67q0 -23 -6 -41q-14 86 -21 102q-18 49 -65 49q-61 0 -72 -57q25 -8 46.5 -32.5t21.5 -49.5q0 -16 -4 -20q-25 92 -64 92q-43 0 -83 -60.5t-42 -107.5q-6 6 -2 12q0 70 60 135q-20 25 -60 52 q-45 29 -71 28q-10 0 -103 -106q-115 -133 -164 -176z" />
<glyph unicode="6" horiz-adv-x="1288" d="M41 432q-10 49 92 209q0 2 -13.5 10t-13.5 17q0 92 119 288q2 14 11 39q156 242 167 242q29 0 123 -59q2 -6 2 -13q0 -29 -41 -78q8 -16 33 -16q43 0 84 59q61 88 168 267q-4 16 -4 45q6 27 10 35q8 16 27 24q41 18 49 33q12 0 35 6q23 16 74 49q33 16 88 17 q27 0 73.5 -14.5t61.5 -30.5l18 -23q29 -37 56 -68q20 -18 120 -59q-37 6 -114 21q-4 6 -4 -11q0 -14 3 -42.5t3 -43.5q25 -10 47 -20q27 -16 26 -41q0 -27 -67 -47q27 -25 26 -45q0 -20 -32 -54q27 -41 26 -69q0 -51 -49 -66q-16 0 -53 -4q-66 -109 -66 -145 q0 -12 20.5 -61.5t20.5 -61.5q0 -10 -13 -44t-13 -42q0 -35 23.5 -106.5t23.5 -106.5v-209q-8 -18 -51 -23q-49 -6 -52 -8q-96 -84 -219 -186q-27 -23 -26 -43q0 -12 28.5 -44t38.5 -32q12 0 39 3t41 3q121 0 121 -45q0 -41 -74 -94q-49 -35 -86 -51q121 63 152 135l-4 22 q-76 -96 -181 -135q-63 -20 -188 -63q12 -20 37 -21q35 0 176 58q-133 -70 -205 -66q-18 35 -57 103q-27 27 -55 77q29 -74 77 -73q31 0 101 43q80 49 80 94q0 16 -52 84q-31 -41 -92 -105q-31 -20 -121 -34q-4 2 -41 51q-242 20 -294 20q-23 0 -71 -56t-89 -56 q-53 0 -53 59q0 20 16 96q0 -12 -7 -40.5t-7 -45.5q0 -41 26 -63q2 4 8 12q-2 98 103 365l-23 24q-66 -143 -94 -231l84 233q0 4 -30.5 44t-34.5 57q-2 6 -25 118q-14 10 -43 33zM47 438q18 -23 103 -22q61 -10 180 -41q8 -2 36.5 -16.5t32.5 -14.5q6 0 17.5 4t15.5 4 q-37 102 -33 264h-104q-25 -25 -39 -24q-14 6 -115 45q-94 -162 -94 -199zM260 -102q45 0 158 -7l309 -20v43q0 -10 -12 100q0 147 -25 150l-307 26h-123v-292zM295 -94v264l385 -20q20 -96 20 -183v-61l-8 -10q-254 10 -397 10zM301 625q66 8 98 6q4 63 17 186 q12 115 82 201q63 -10 127 -19q82 -20 106 -92q14 -41 12 -149q31 61 31 110q0 92 -98 144q-47 25 -187 59q-63 -119 -106 -231q-70 -186 -82 -215zM381 279h39q0 6 13 21.5t13 23.5q0 14 -22 14q-35 0 -43 -59zM408 578q-16 -221 104 -293q0 20 10 20q0 -20 25.5 -31.5 t46.5 -7.5q-6 14 -21 35q6 6 9 4q18 -35 34 -47q39 4 39 43q-2 51 21 70q10 -20 20 -21q15 1 31 17q6 18 -25.5 48.5t-54.5 39.5q12 70 47 204q18 37 19 41v23q-80 55 -178 55q-121 0 -113 -2zM428 791h109q43 0 92 -15q39 -16 96 -37q0 14 4 43t4 43q0 104 -65 142 q-41 23 -166 37q-74 -106 -74 -177v-36zM547 1075q49 -20 127 -43q-66 72 -74 72q-10 0 -30.5 -14.5t-22.5 -14.5zM594 -137q20 -39 43 -39q21 -1 76 24q-39 4 -119 15zM614 1120q0 -27 86 -92q72 -55 103 -67q199 -80 315 -109q10 18 68 154q6 0 17 -4.5t18 -4.5 q68 0 67 64q0 33 -35 67q41 39 41 54q0 14 -8 14q-23 8 -59 8q-51 0 -103 -20q-6 6 -4 10q74 25 115 25q6 0 18.5 -3.5t20.5 -3.5q-14 29 -8 33l7 -4t15 -4q25 0 45 23v30q-27 12 -71 39q2 66 -17 109l-223 39q2 -6 2 -15q0 -51 -51 -51q-2 0 -18.5 13.5t-30.5 13.5 q-35 0 -35 -29q0 -6 4 -18.5t4 -20.5q0 -12 -8 -18q-29 6 -72 14q-10 2 -33 25q-170 -225 -170 -271zM662 459q25 -6 51 -37t26 -55q0 -14 -10 -27q29 -31 39 -59q20 0 53 -7q18 -14 13 -43l274 -41q72 0 72 29q4 150 -15 277q-2 16 -20 73q-18 51 -19 62q0 12 13.5 45 t13.5 45q0 25 -12 65q-14 49 -29 56q-23 10 -180 57q-121 37 -184 78q39 -80 38 -109q0 -43 -32 -108q-41 -82 -45 -92q-31 -90 -47 -209zM668 305q10 -6 34 -20l35 -21l11 31q-8 23 -30 30t-42 13zM868 655q50 -18 109 -18q-6 -12 -21 -12q-12 0 -47 12t-41 18zM907 1417 l2 10l33 -16l-4 -8zM1120 1346q0 66 60 65q27 0 47 -19t20 -46q0 -61 -63 -62q-63 0 -64 62zM1126 1348q0 -16 18.5 -37t35.5 -21q20 0 40.5 19t20.5 39t-20.5 38.5t-40.5 18.5q-16 0 -35 -20.5t-19 -36.5zM1188 1303v10l16 8l4 -10z" />
<glyph unicode="7" horiz-adv-x="1325" d="M39 -115q0 78 35 232q33 141 67 225q-2 8 -2 20q10 23 29 58q14 8 39 24q12 16 45 64q23 33 98 92q59 47 60 64q0 -12 -21 69q-8 33 -35 197q-18 2 -37 2q-29 6 -32 26q-2 6 6 78q-4 6 -12 17q-4 -23 -5 116q0 6 -10 28t-10 28q0 -4 31 100q2 14 31.5 40t35.5 34 q33 43 56 88q2 20 14 51q20 16 72.5 44t70.5 28q4 0 10.5 -2t10.5 -2q-12 0 39 14q6 2 102 2q66 0 123 -31q14 -8 29 -47q8 -6 22 -14q57 -53 76 -86q2 -12 10 -35q10 -8 29 -27q10 -31 22 -84q-2 -23 -2 -67q0 -4 5.5 -16.5t5.5 -18.5q0 -8 -35 -59q12 -12 26 -37 q4 -14 4 -25q0 -12 -9 -22.5t-9 -14.5v-376q41 -27 119 -87q20 -20 33 -40q129 -203 182 -453q24 -118 61 -483q-8 41 -18 120q-6 399 -170 713q-10 -41 -39 -110q-31 -31 -31 -35t22.5 -57.5t26.5 -61.5q6 -23 7 -43q0 -12 -13.5 -46t-13.5 -46q55 -184 55 -244 q0 -119 -57 -192q51 106 51 190q0 72 -35 182q-2 4 -14 31q-10 20 -10 27q0 12 13 49t13 49q0 41 -92 246q6 0 12 -6q16 16 37 64t21 73q0 23 -62 76q-51 45 -71 53q-31 -170 -156 -271q-6 -2 -18 21q-63 -61 -127 -111q-14 8 -95 62q-59 39 -65 39q-8 0 -6 -3t-6 -3 q-14 0 -66 59q-47 53 -61.5 75.5t-24.5 65.5q-14 59 -20 72q-33 -29 -99 -88q-55 -51 -86 -98q33 -27 103 -91q6 8 18 21q-53 -160 -53 -229q0 -25 20 -113q0 12 -26 -76q-45 -147 -45 -248q0 -72 22 -118q-33 20 -33 114q0 88 43 232l29 96q0 8 -10 34.5t-10 39.5 q8 45 8 133q-12 51 -133 98q-33 -57 -70 -207q-39 -160 -39 -272v-172q0 -43 8 -96q-14 37 -14 75v213zM150 356q35 -16 82 -42.5t59 -59.5q31 76 31 88q0 14 -49.5 52t-65.5 38q-41 0 -57 -76zM289 979q0 -6 3 -15.5t3 -11.5q25 -8 70 -26q10 -96 30 -183q4 -10 13 -38 q25 -90 122 -142q25 -12 158 -78q47 -35 55 -82q18 49 72 84q27 16 80 52q102 72 125 135q10 34 10 188q0 82 -14 160q-2 14 -21.5 67.5t-19.5 59.5q0 14 5 41t5 41v155q-2 8 -12 46q-8 20 -47 63t-54 43q-39 0 -65 -25q-14 -14 -25 -14q-6 0 -21.5 6t-21.5 6 q-8 0 -25.5 -11t-21.5 -11q-6 0 -25.5 11t-25.5 11t-23.5 -8t-25.5 -8t-26.5 5t-26.5 5q-6 0 -21.5 -8t-21.5 -8t-15.5 3t-15.5 3q-16 0 -25 -4q-16 -2 -48 -46t-32 -63v-4q12 -10 31 -32q4 -10 0 -31q2 4 2 -25q0 -4 -7 -10l-7 -6q16 -29 12 -41l-8 -12q2 -16 2 -50 q-6 -12 -14 -32q0 -6 6 -30t6 -36q0 -33 -29 -33q-6 0 -19 5.5t-18 5.5q-29 -39 -28 -72zM299 1004q10 14 31 30h18q-6 -4 -16 -14q6 -20 6 -35q0 -10 -4 -16v35l-12 10q-2 0 -11.5 -5t-11.5 -5zM418 657q14 -174 162 -280q4 20 35.5 48t54.5 36q-16 -14 -45 -43q6 -6 6 -12 q25 -12 31 -13h73q-6 63 -143 129q-147 72 -174 135zM514 1153q0 35 28.5 60.5t63.5 25.5q37 0 61.5 -24.5t24.5 -61.5t-25.5 -61.5t-62.5 -24.5t-63.5 24.5t-26.5 61.5zM520 1155q12 -35 25 -49q28 21 141 41q-4 18 -12 47h-43q0 -20 -19 -20q-23 0 -22 16q-27 -12 -70 -35 zM535 1180q46 18 124 28q-31 20 -55 21q-23 0 -45 -14.5t-24 -34.5zM549 1098q29 -18 55 -19q53 1 76 54q-72 -8 -131 -35zM565 922q0 10 62 84q-2 20 22 38q-12 -12 -12 -32q0 -37 41 -37q18 0 43 26q45 -23 70 -22q84 0 83 59q0 16 -59 66q-29 25 -29 63q0 35 28 59.5 t63 24.5q33 0 62.5 -25.5t29.5 -58.5q0 -68 -107 -86q10 -8 21 -26q2 -10 -3.5 -29.5t-5.5 -26.5q0 -16 72 -53v-31q-4 -14 -31 -16q-39 -4 -47 -6q12 -25 11 -43q6 -8 16 -23q2 -16 -6 -36l-8 -21q0 -8 10 -28.5t10 -26.5q0 -78 -115 -78q-27 0 -84 16q49 -6 86 -6 q35 0 68 15q41 20 41 49q0 10 -27 55q14 55 13 59q-18 20 -64 21q-51 0 -155 -29q100 41 157 41q29 0 39 -6q8 8 8 16q0 39 -65 39q-20 0 -62.5 -11t-62.5 -11q-18 0 -53 6t-54 6q0 2 -3 10t-3 15zM592 377q135 -90 156 -90q10 0 68 50t58 62q0 14 -26 27q-18 -45 -121 -45 q-12 0 -72 8q-16 10 -45 27q-18 -35 -18 -39zM754 393h34q12 0 35 15.5t23 27.5q-8 4 -21 15q25 2 47 -31q12 -23 27 -43q49 41 95 119t46 135q0 8 -14 22q-51 -68 -172 -149q-94 -63 -100 -111zM797 1143q79 4 159 0v45q-14 25 -41 24h-18q0 -18 -4 -22h-10q-20 0 -21 20 q-8 0 -51 -4q-6 0 -14 -18v-45zM809 1139q23 -43 68 -43q30 -1 63 30q-51 14 -63 13h-68zM825 1219h105q-31 20 -53 20q-23 0 -52 -20zM997 1122q8 -16 23 -75q14 26 14 38q0 10 -37 37zM1135 352q0 -16 24 -53l29 29q41 83 41 112q0 14 -37 52q-8 -51 -37 -101 q-20 -35 -20 -39z" />
<glyph unicode="8" horiz-adv-x="1310" d="M29 528q0 156 121 469q-12 25 -13 43q0 8 2 17q18 20 47 65q68 158 154 269q115 150 233 180q94 25 136 24q88 0 192 -41q113 -45 166 -106q82 -96 135 -260q18 -18 47 -60q-4 -18 -4 -49q14 -27 33 -73q61 -312 61 -388q0 -178 -100 -274q-82 -80 -270 -135 q59 -51 121 -121q10 -10 94 -123q6 -8 41 -108q10 -12 24 -37q-4 -27 -4 -80q0 -14 21 -94l-11 -47q0 35 -18 139l-12 12q-23 -14 -62 -14q-2 -92 -65 -137h-641q0 6 3 20t3 23q0 41 -107 98q-45 25 -149 39q-20 -25 -37 -88q-20 -76 -27 -92q6 43 12.5 89t24.5 79 q-6 8 -16 26l-27 -16q-18 -14 -26 -39q-2 -6 16 -70q6 -18 -21 -69q12 51 7 67q-16 43 -19 55q0 23 21 48q18 18 35 36q6 250 161 412q0 6 -12 14q-139 55 -193 103q-78 72 -77 194zM154 1024q305 217 610 217q262 0 473 -137v24q-172 170 -463 170q-338 0 -598 -202 q-23 -18 -22 -72zM168 -150q57 74 170 195q80 47 211 129q-74 16 -221 45q-147 -170 -160 -369zM174 -188q0 -16 10 -27q174 20 289 -129q33 31 33 51q0 61 -121 119q-100 47 -160 47q-51 0 -51 -61zM219 1155q272 158 559 158q123 0 197 -19q96 -24 211 -96 q-57 174 -172 275q-127 109 -301 108q-168 0 -307 -137q-111 -109 -187 -289zM348 621q0 -266 225 -338q20 -6 74 -23l12 -8q-2 -4 -16 -15.5t-14 -19.5q0 -6 7 -26.5t3 -28.5h-31q68 -100 156 -101q63 0 108 68q-18 66 -18 115q102 35 164 59q190 74 211 209q2 14 2 84 q0 29 -19 131q-53 -51 -116 -51q-14 0 -50 11t-51 11q-10 0 -43 -32q-39 -39 -51 -48q-6 6 -4 11q94 63 94 119q0 25 -55 95t-53 113h-43q8 -33 8 -63q0 -98 -70.5 -169t-169.5 -71q-70 0 -137.5 47.5t-93.5 112.5q-29 -174 -29 -192zM383 854q0 -80 71.5 -133t153.5 -53 q96 0 164 66.5t68 162.5q0 92 -70 159.5t-162 67.5q-55 0 -92 -18q-72 -35 -80 -55q-53 -131 -53 -197zM442 86q86 -72 86 -213q0 -39 -10 -170q-2 -16 -19.5 -42t-19.5 -34q121 80 121 238q0 137 -74 260q-33 -16 -84 -39zM442 901q18 12 47 47q55 111 125 111 q61 0 96 -47.5t35 -110.5t-34.5 -108t-96.5 -45q-98 0 -135 153l-20 -22q0 4 14 34v9q-12 -6 -31 -21zM451 1081q82 57 153 58q78 0 143.5 -46t86.5 -120h55q4 55 73.5 119.5t122.5 64.5q13 0 23 -6q-195 76 -344 76q-61 0 -160 -17q-113 -18 -131 -43q-10 -12 -14 -41 q-6 -39 -8 -45zM500 936q-6 -61 22 -117q33 -63 92 -63q51 0 87 47t36 100q0 90 -49 90q-61 0 -188 -57zM508 952q88 54 186 52q-41 41 -80 40q-76 0 -106 -92zM535 129q104 -119 233 -119q55 0 106 35t74 86q-33 16 -57 16q-33 -94 -131 -94q-35 0 -39 2q-18 6 -76.5 56.5 t-64.5 50.5q-23 0 -45 -33zM682 872v27q19 0 27 -8q0 -18 -27 -19zM702 434q18 4 52 19q61 49 67 49h53q0 -2 4.5 -11.5t4.5 -17.5t-13.5 -22.5t-13.5 -18.5q0 -18 -6 -51q-12 -39 -53 -39q-47 0 -62 37q-18 47 -33 55zM877 176q51 -12 107 -60t71 -96q0 -39 2 -71 q2 -24 57 -47v106q0 70 -125 156l-51 35q-33 0 -61 -23zM897 944q0 -39 56.5 -106.5t45.5 -130.5q63 -16 95 -17q86 0 123 53q-4 16 -27 127q-31 -94 -119 -94q-49 0 -83 45t-34 97q0 53 34 97t87 44q31 0 82 -35v33q0 76 -67 76q-72 0 -132.5 -58.5t-60.5 -130.5zM963 918 q0 -49 32.5 -87t79.5 -38q45 0 78 34.5t33 79.5q0 14 -10 33q-96 39 -152 39h-45q-16 -51 -16 -61zM991 989q43 1 180 -26q-6 29 -36.5 55t-59.5 26q-23 0 -49.5 -17t-34.5 -38zM1102 872v27q14 -4 18 -16q4 -13 -2 -19zM1151 -172q18 -43 14 -78h39q41 0 41 53q0 16 -18 33 q-27 -8 -76 -8z" />
<glyph unicode="9" horiz-adv-x="1630" d="M68 -401q23 78 57 215q16 63 43 143q16 43 53 158q47 152 164 262q39 37 111 78q90 51 114 69q14 25 52 78q-61 66 -76 148q-6 33 -6 147q0 10 -14 15l-15 6q0 6 10 59q8 43 0 61q-2 8 -18.5 43t-16.5 45q0 8 13.5 38t15.5 42q6 156 96 267q96 121 248 120q145 0 229 -95 t84 -241q0 -76 -4 -81q-27 -59 -26 -103q0 -37 15 -124t15 -124q0 -61 -42 -132.5t-42 -74.5q0 -39 150 -143q223 -156 352 -487q45 -117 117 -389q-117 381 -170 491q-141 291 -397 442l24 -268v-78q-43 -6 -104 -43q25 -23 67 -75q-16 -16 -139 -125q-92 -80 -131 -140 q-23 -33 -29 -204q6 84 29 251q-78 55 -219 170q-16 14 -16 46q0 23 23.5 49t45.5 37q-16 12 -113 51q0 111 -14 313q-35 -25 -102 -65q-203 -119 -291 -381zM397 -401q78 289 78 397q0 47 -6 92q12 -49 12 -102q0 -92 -26 -197q-6 -25 -58 -190zM549 1100q0 -6 14 -37 q4 -10 19 -39q-6 -51 39 -66q18 -6 79 -6q72 0 140.5 42t115.5 42q35 0 82 -22.5t68 -22.5q37 0 68 25q-14 111 -17 182q-27 41 -121 70q-80 25 -141 24q-45 0 -113 -18q-78 -20 -102 -45q-2 -29 -2 -60q-4 -41 -27 -59q-61 31 -67 31q-35 0 -35 -41zM551 1149 q61 70 158.5 114t189.5 44q113 0 275 -90q-14 37 -113 71q-88 33 -139 33q-102 0 -201 -35q-133 -47 -170 -137zM557 938q0 -12 14 -20l21 -15q-10 -80 -2 -127q29 -164 158 -227q141 -70 186 -70q70 0 147 47q29 94 82 179q33 51 33 157q0 10 -6 10q-4 0 -8 -4l6 70 q4 41 -8 59q-68 -23 -74 -22q-10 0 -72.5 26.5t-72.5 26.5q-41 0 -116 -45t-145 -45q-88 0 -125 37q-18 -18 -18 -37zM567 1208q133 121 328 121q203 1 309 -112v102q0 49 -52 126t-99 99q-86 41 -154 41q-143 0 -235 -121q-80 -104 -97 -256zM578 1114l10 6l33 -45l-11 -8z M580 1151q14 0 63 -25l19 17v74q-55 -29 -82 -66zM616 430q0 -41 9 -108q8 -82 10 -111q2 -6 52 -25.5t58 -33.5q-76 -63 -75 -86q0 -33 116 -117q41 -29 123 -88q0 4 4.5 15.5t4.5 19.5t-58 114q-70 129 -84 166q-51 129 -74 352q-10 49 -36 64q-35 -55 -43 -86 q-6 -23 -7 -76zM709 537q0 -41 24 -129q63 -57 88 -58q10 0 29 49q25 66 31 76q-59 25 -172 86v-24zM723 1100q0 31 25.5 55.5t56.5 24.5q33 0 58.5 -23.5t25.5 -56.5q0 -29 -27.5 -54.5t-56.5 -25.5q-27 0 -54.5 26.5t-27.5 53.5zM737 1104q0 -68 72 -68q63 1 63 64 q0 29 -19 50t-48 21q-27 0 -47.5 -20.5t-20.5 -46.5zM739 356q0 -29 38 -135t57 -127q55 168 55 219q0 25 -35 60q-8 -18 -31 -37q-31 14 -84 45v-25zM743 1192l48 57l10 -8l-49 -57zM793 1104q0 10 10 10t10 -10t-10 -10t-10 10zM795 1100l10 18l10 -2l-10 -20zM874 629 q8 25 11 116q2 76 24 95q-18 -74 -16 -99q39 54 84 99q-10 -16 -55 -76q-37 -47 -29 -82q12 14 39 45q-25 -51 -58 -98zM920 -154q96 76 239 222l-76 75q8 8 15 11q39 29 98 41v24q0 133 -25 295q-4 25 -53 92q-16 -61 -33 -184q-6 -66 -26 -195q-12 -66 -66 -194 q-63 -154 -73 -187zM948 461q25 -39 72 -117q35 35 49 82q6 37 14 74q-92 -31 -135 -39zM956 152q0 -27 29 -103q53 111 82 332q-31 -45 -47 -53q-29 31 -37 45q-16 -16 -27 -17v-204zM993 1092q0 33 25.5 56t58.5 23q31 0 56.5 -24t25.5 -55q0 -25 -28.5 -51.5t-53.5 -26.5 q-27 0 -55.5 25.5t-28.5 52.5zM1010 627q0 12 34 67q2 8 -4 33q15 -15 15 -27q0 -10 -19.5 -42.5t-21.5 -43.5q-4 6 -4 13zM1010 1092q0 -27 20.5 -45.5t46.5 -18.5q68 0 68 68q0 25 -20.5 46t-45.5 21q-70 0 -69 -71zM1077 1104q0 10 10 10t11 -10q0 -10 -11 -10 q-10 0 -10 10zM1151 -111h70q6 53 32 146q18 -35 19 -74q0 -27 -8 -57q12 -12 20 -13q12 0 39 3.5t41 3.5q2 35 -35 190l96 -483l-24 153q-14 90 -37 133q-37 -4 -100 -4q-49 0 -113 2z" />
<glyph unicode=":" horiz-adv-x="604" d="M39 150q0 74 37 129q41 63 112 63q16 0 37 -4q16 29 17 59q0 25 -13 52q16 -41 25 -60q16 -31 37 -51q4 4 67 22q45 14 68 39l139 -82q51 -37 51 -137q0 -301 -278 -291l-59 2q-150 23 -203 97q-37 51 -37 162zM39 979q0 74 37 129q41 63 112 63q16 0 37 -4q16 29 17 60 q0 25 -13 51q16 -41 25 -59q16 -31 37 -52q4 4 67 23q45 14 68 39l139 -82q51 -37 51 -137q0 -301 -278 -291l-59 2q-150 23 -203 96q-37 51 -37 162zM92 664l27 18l47 -72l-27 -16zM92 1493l27 18l47 -71l-27 -17zM139 25q49 -43 92 -43h162q45 133 45 192q-25 66 -159 66 q-96 0 -140 -43v-172zM139 594l27 16l104 -262l-28 -4zM139 854q49 -43 92 -43h162q45 134 45 193q-25 66 -159 65q-96 0 -140 -43v-172zM139 1423l27 17l104 -262l-28 -4zM408 377l61 155l27 -20l-64 -139zM408 1206l61 156l27 -21l-64 -139zM469 532l88 130l27 -19 l-88 -131zM469 1362l88 129l27 -18l-88 -132z" />
<glyph unicode=";" horiz-adv-x="602" d="M68 -391q45 324 45 622q-1 111 -9 283q131 20 222 21q88 0 260 -25q16 -150 16 -244q0 -575 -534 -657zM121 1016q0 59 12 178q113 23 229 23q117 0 228 -21q25 -90 24 -215q0 -98 -14 -199q-133 -25 -242 -24q-80 0 -202 16q-35 123 -35 242z" />
<glyph unicode="&#x3c;" horiz-adv-x="1009" d="M74 608v264l952 496v-313l-618 -316l616 -315v-311z" />
<glyph unicode="=" horiz-adv-x="1052" d="M37 909q0 31 6 86q328 -4 1012 -6q8 -66 8 -125q0 -6 -4 -108q-293 8 -477 8q-266 0 -533 -10q-12 98 -12 155zM41 555q0 21 2 84q313 18 823 18q20 0 189 -4q6 -88 6 -139q0 -33 -2 -106q-150 6 -283 6q-399 0 -727 -11q-8 106 -8 152z" />
<glyph unicode="&#x3e;" horiz-adv-x="956" d="M74 113v313l616 315l-616 316v311l950 -496v-266z" />
<glyph unicode="?" horiz-adv-x="868" d="M2 1081q170 102 371 103q217 0 366 -129q158 -135 158 -348q0 -229 -180 -359q-160 -115 -398 -115q-27 1 -47 3v73l7 80q31 -6 47 -6q119 0 118 86q0 70 -84 70q-51 0 -139 -41q-152 252 -219 583zM172 135q150 55 309 96q45 -102 82 -213q-109 -47 -307 -102 q-53 117 -84 219z" />
<glyph unicode="@" horiz-adv-x="1552" d="M31 719q0 332 233.5 556t566.5 224q309 0 533 -199q231 -205 231 -509q0 -317 -262 -486q-55 -35 -84 -41q-20 -4 -90 -4q-86 0 -135 10q-6 43 -6 70q-59 -111 -180 -111q-141 0 -234 117q-86 106 -86 252q0 152 92 257.5t242 105.5q39 0 109 -21l69 -20l55 8q55 8 97 8 q20 0 73 -4q-16 -164 -16 -438v-82q129 109 129 301q0 199 -127 319.5t-328 120.5q-227 0 -367 -146.5t-140 -375.5q0 -244 147 -378t393 -134q68 0 146 12q12 -59 16 -143q-139 -57 -279 -58q-334 0 -566 227.5t-232 561.5zM891 741q0 -66 78 -65q31 0 51 10q0 28 4 94 q-37 23 -70 23q-63 0 -63 -62z" />
<glyph unicode="A" horiz-adv-x="1482" d="M131 -170q141 1075 303 1677q338 -26 676 -26h25q203 -401 284 -643q111 -322 111 -613q0 -137 -25 -196q-37 -90 -205 -185q-63 -37 -256 -123q-41 268 -129 441q-145 -37 -262 -99q-6 -184 -37 -315h-186q-39 0 -135 32t-164 50zM731 604h121v148l-121 28v-176z" />
<glyph unicode="B" horiz-adv-x="1417" d="M33 592v782q444 248 846 248q272 0 411.5 -144.5t139.5 -416.5q0 -408 -277 -569q293 -183 293 -455q0 -266 -264 -361q-150 -53 -418 -53q-51 0 -221 21q-197 23 -328 51q-57 135 -80 244q-31 139 -67 389q-35 231 -35 264zM668 795q16 -6 77 -50q44 -32 82 -32h2 q39 0 95 32q67 40 67 89q0 43 -58.5 82.5t-103.5 39.5q-59 0 -143 -77zM715 176q0 -51 40 -91t91 -40q45 0 87 47t42 92q0 49 -40 85t-89 36q-55 0 -93 -37t-38 -92z" />
<glyph unicode="C" horiz-adv-x="1646" d="M20 625q0 412 334 682q306 249 708 249h3q201 0 383 -65q252 -90 252 -262q0 -121 -21 -223q-29 -145 -82 -146q-27 0 -104 35q-84 35 -113 39q-226 26 -226 29h3q-184 0 -299 -70q-141 -84 -141 -258q0 -328 440 -328q127 0 148 4q72 14 303 99q92 -37 92 -338 q0 -168 -33 -193q-150 -111 -385 -160q-31 -6 -217 -6q-403 0 -711 244q-334 264 -334 668z" />
<glyph unicode="D" horiz-adv-x="1716" d="M78 1268q2 25 10 39q78 109 315 176q188 53 345 53q369 0 686 -272q327 -285 327 -650q0 -391 -274.5 -656t-667.5 -265q-147 0 -694 147l-43 1327q-4 106 -4 101zM717 614q0 -94 39 -178q59 -129 186 -129q106 0 172 115q53 94 53 192q0 90 -41 179q-59 129 -184 129 q-111 0 -174 -111q-51 -88 -51 -197z" />
<glyph unicode="E" horiz-adv-x="1214" d="M43 868v420q213 106 530 170q195 39 562 78q10 -8 28 -33l64 -420q0 -31 -19.5 -65.5t-46.5 -38.5q-178 -25 -256 -39q-160 -31 -256 -88l13 -96q6 -41 45 -41q27 0 101.5 28.5t100.5 28.5q45 0 66 -33q92 -233 92 -262q0 -18 -31 -74l-155 -41q-109 -29 -174 -75v-51 q139 -39 294 -39q27 0 83.5 7t82.5 7q96 0 123 -107q8 -33 8 -139q0 -37 -8 -112.5t-8 -114.5q-344 -33 -496 -33q-76 0 -608 49q-10 6 -31 29q-27 193 -67 651z" />
<glyph unicode="F" horiz-adv-x="1214" d="M104 555v696q137 72 338 121q98 25 353 72q209 37 239 37h160l55 -336v-162q-182 -45 -538 -154q0 -117 30 -163q59 14 244 51q51 -104 125 -324l-307 -112q-74 -31 -74 -58q0 -10 25.5 -82.5t25.5 -122.5v-247h-516q-37 131 -90 360q-70 305 -70 424z" />
<glyph unicode="G" horiz-adv-x="1703" d="M74 578q0 451 352 710q307 227 733 228q129 0 301 -50q217 -61 266 -157v-428q-14 -20 -27 -39t-46 -19q-49 0 -115 43q-193 57 -354 58q-444 0 -445 -359q0 -162 88 -260t246 -98q90 0 143 45q47 40 47 115q0 9 -1 18q-66 20 -269 21q-11 21 -11 69q0 13 1 29l6 119 q164 18 344 18q197 0 367 -23v-727q-369 -178 -701 -178q-356 0 -628 230q-297 250 -297 635z" />
<glyph unicode="H" horiz-adv-x="1767" d="M18 979v414q86 41 295 118q240 92 283 93h106l89 -865q4 -6 8 -14q4 2 26 2q84 0 203 64v73q0 123 -4 328q-6 285 -6 428h125q16 0 200 -37q215 -43 304 -55q31 -18 51 -49q29 -229 61 -605q31 -342 31 -389q0 -25 -2 -100l-14 -528q-2 -104 -60 -123q-117 -37 -284 -53 q-8 0 -289 -21q-55 80 -56 199v442l-30 31q-61 -14 -226 -84v-11q1 -47 15 -127q16 -90 16 -130v-302l-524 -53q-63 0 -123 43q-16 29 -37 84l-94 572q-63 424 -64 655z" />
<glyph unicode="I" horiz-adv-x="708" d="M39 1071q0 74 37 129q41 63 112 64q16 0 37 -4q16 29 17 59q0 25 -13 51q16 -41 25 -59q16 -31 37 -51q4 4 67 22q45 14 68 39l139 -82q51 -37 51 -137q0 -291 -278 -291q25 -18 80 -18q18 0 56 2t56 2q94 0 138 -45q37 -76 65 -322q23 -188 23 -272q0 -268 -60 -342 q-68 -86 -309 -86q-121 0 -223 26q-84 135 -84 611q0 266 26 391q25 27 173 55q-150 23 -203 96q-37 51 -37 162zM92 1585l27 19l47 -72l-27 -16zM139 946q49 -43 92 -43h162q45 134 45 193q-25 65 -155 65h-4q-96 0 -140 -43v-172zM139 1516l27 16l104 -262l-28 -4z M408 1298l61 156l27 -20l-64 -140zM469 1454l88 129l27 -18l-88 -131z" />
<glyph unicode="J" horiz-adv-x="1654" d="M35 -133q0 115 76 487q467 -32 534 -32h4q154 0 164 63q57 348 188 1212q10 10 39 41q160 -33 322 -63q184 -43 311 -98q-27 -567 -47 -770t-84 -523q-76 -387 -211 -481q-72 -49 -254 -59h-258q-272 0 -348 4q-213 12 -395 55q-41 53 -41 164z" />
<glyph unicode="K" horiz-adv-x="1310" d="M88 840v391q66 31 254 100q207 76 244 76h90q12 -66 55 -201l330 244q39 -35 156 -190q139 -186 139 -242q0 -33 -199 -201q-256 -217 -262 -225q45 -45 285 -252q176 -152 176 -172q0 -31 -137 -215q-115 -154 -172 -219q-86 66 -259 188v-172q-68 0 -190 -4 q-92 -2 -190 -8l-77 -4h1q-76 0 -121 106q-33 78 -49 219q-10 92 -19 183q-55 403 -55 598z" />
<glyph unicode="L" horiz-adv-x="1294" d="M215 1210q0 45 51 131q420 82 520 82q78 0 119 -80v-720q0 -88 27 -127q33 -47 117 -47q31 0 89 11t89 11q76 0 129 -55v-535q-170 -33 -449 -57q-217 -18 -311 -19q-158 0 -236 29z" />
<glyph unicode="M" horiz-adv-x="1849" d="M266 -117v1481q14 31 148 70q120 36 162 36h2q131 0 192 -26q76 -33 137 -135q12 -23 146 -275q80 29 116 176q45 172 105 209q47 27 244 27q125 0 149 -4q98 -16 107 -80q39 -287 75 -782q31 -422 31 -508q0 -143 -55 -209q-33 -8 -98.5 -25.5t-98.5 -25.5 q-115 -29 -198 -29q-57 41 -66 98q0 16 -6 164q-4 141 -51 317q-18 -6 -80 -59q-72 -63 -107 -86q-59 39 -188 170q-43 -301 -43 -504q-145 -18 -311 -18t-312 18z" />
<glyph unicode="N" horiz-adv-x="1746" d="M27 1167q0 182 18 222q10 20 293 116q272 92 303 92q45 0 166 -192q68 -109 141 -231q12 16 12 52q0 24 -6 60q-4 23 -4 43q0 51 27 72q377 158 645 182q68 -131 84 -498q18 -131 41 -477l14 -602q2 -53 2 -93q0 -60 -4 -91q-14 -135 -76 -135h-505q-113 164 -351 491 v-40q0 -183 -16 -433q-176 -33 -340 -33q-174 0 -174 -2q0 -1 41 -2q-84 2 -118 37t-40 53q-43 137 -67 303q-31 215 -62 678q-25 369 -24 428z" />
<glyph unicode="O" horiz-adv-x="2082" d="M23 647q0 301 204 535q180 205 484 327q264 106 493 107q912 0 912 -1014q0 -766 -527 -885q-365 -82 -497 -82q-467 0 -764 271q-305 279 -305 741zM766 547q0 -145 90 -244q92 -104 236 -104q172 0 293.5 115.5t121.5 287.5q0 100 -57 221q-78 162 -201 162 q-207 0 -342 -115q-141 -119 -141 -323z" />
<glyph unicode="P" horiz-adv-x="1634" d="M33 936q-1 50 -1 115t1 145l2 154q150 111 491 194q311 78 531 78q334 0 489 -168q150 -160 150 -496q0 -342 -215 -520q-184 -152 -549 -198q-29 -4 -55 -11q-41 -10 -68 -30q-1 -26 -1 -51q0 -141 28 -273l34 -166q0 -47 -65 -59q-47 -8 -260 -8q-25 0 -75 -9.5 t-75 -9.5q-72 0 -139 6q-160 307 -205 942q-16 223 -18 365zM723 754q39 -72 166 -72q186 0 186 125q0 59 -65 96q-57 31 -121 31q-55 0 -166 -70v-110z" />
<glyph unicode="Q" horiz-adv-x="2140" d="M18 633q0 477 359 758q314 247 746 247h3q121 0 191 -10q123 -18 278 -78q313 -121 430 -381q78 -172 78 -462q0 -197 -24 -322q-12 -59 -86 -319q68 -53 133 -105q90 -80 90 -129q0 -76 -96 -154q-85 -69 -137 -69h-1q-23 0 -167 74.5t-166 74.5q-27 0 -55.5 -11 t-55.5 -21q-86 -27 -281 -48q-143 -14 -204 -14q-473 0 -748 246q-287 256 -287 723zM745 559q0 -86 80 -199q98 -137 236 -137q35 0 55 27q-18 25 -104 137q-61 80 -62 107q0 16 88 110q94 102 136 103q27 0 108 -82q117 -117 145 -140l25 271q-35 96 -104 159 q-78 72 -174 72q-180 0 -304.5 -124t-124.5 -304z" />
<glyph unicode="R" horiz-adv-x="1654" d="M14 1288q0 35 16.5 77t43.5 56q51 27 153 54q133 33 156 41q316 108 607 108h5q356 0 525 -154q178 -160 178 -512q0 -139 -51 -262q-31 -74 -95 -168q-51 -76 -51 -96q0 -113 69.5 -344t69.5 -344q0 -23 -20.5 -49.5t-40.5 -30.5q-195 -31 -442 -31q-94 0 -133 148 q-14 63 -41 192q-23 98 -50 267q-10 10 -30 10q-33 0 -65 -25.5t-32 -58.5q0 -18 29 -193q33 -205 41 -282q-51 -47 -96 -56q-10 -2 -80 -2q-78 0 -232 -7q-136 -6 -135 -7h2q-86 0 -137 143q-12 37 -43 185q-82 401 -92 540q0 6 -14 330q-14 334 -15 471zM700 803 q0 -51 74 -94q66 -39 123 -39q35 0 94 26q88 40 88 101q0 59 -60.5 99t-121.5 40q-57 0 -123 -39q-74 -43 -74 -94z" />
<glyph unicode="S" horiz-adv-x="1261" d="M59 -207q6 94 25 283q31 250 111 250q16 0 176.5 -72t183.5 -72q27 0 51 25q1 3 1 6q0 38 -99 94q-152 90 -203 135q-76 68 -135 238q-55 158 -55 272q0 246 233 387q182 111 473 154q123 14 371 45q33 -31 63 -197q27 -141 27 -213v-135q-51 -25 -270 -57 q-164 -25 -217 -88q-16 -18 -17 -90q0 -10 -2 -28.5t-2 -27.5q0 -47 88 -100q16 -10 101.5 -24.5t113.5 -26.5q121 -51 199 -199q65 -124 65 -241q0 -238 -262 -355q-180 -80 -395 -80q-78 0 -336 52q-246 49 -289 65z" />
<glyph unicode="T" horiz-adv-x="1914" d="M14 1065q0 94 62 123q100 47 243 100q1167 322 1442 322q229 0 230 -193v-391q-66 -61 -265 -92q-117 -16 -352 -51v-197l101 -866q0 -137 -103 -178q-55 -23 -184 -23q-199 0 -279 32t-125 263q-12 68 -39 307q-35 311 -49 406q-12 80 -80 80q-49 0 -206 -45 q-172 -47 -234 -54q-47 37 -57 76q-2 8 -66 225q-39 133 -39 156z" />
<glyph unicode="U" horiz-adv-x="1947" d="M29 907q0 209 47 310q63 129 239 186q86 27 433 88q41 -33 67 -33q-24 -136 -24 -256v-10q0 -399 247 -490q139 59 195 179q35 76 51 229q16 166 45 231q233 63 369 64q139 0 186 -19q82 -33 82 -147q0 -33 -3 -100.5t-3 -100.5q0 -502 -195 -860q-240 -442 -698 -442 q-307 0 -553 188q-225 174 -362 469q-123 266 -123 514z" />
<glyph unicode="V" horiz-adv-x="1941" d="M25 1309q1 133 151 235q138 93 258 93q11 0 21 -1l288 -20q4 -66 13 -197q16 -199 73 -336q72 -176 195 -176q109 0 172 127q49 100 66 246q0 6 12 154q20 115 100 145q92 35 232 37l-31 -1q0 -1 270 -1q129 -93 129 -367q0 -381 -280 -862q-264 -453 -594 -694 q-47 -35 -154 -35q-27 0 -78 4t-75 4q-211 0 -410 408q-143 297 -264 776q-94 377 -94 461z" />
<glyph unicode="W" horiz-adv-x="1880" d="M264 1204q0 133 53 207q303 82 398 82q76 -53 86 -229q18 -279 35 -349q61 51 188 146q59 -39 188 -170q43 301 43 502q141 18 301 18q172 0 322 -20v-1479q-18 -31 -147 -70q-117 -35 -164 -35q-182 0 -262 78q-59 57 -213 357q-61 -14 -101 -162q-43 -166 -104 -215 q-41 -33 -260 -33q-129 0 -146 2q-104 14 -114 80q-41 274 -76 782q-27 395 -27 508z" />
<glyph unicode="X" horiz-adv-x="1787" d="M131 1311q0 82 285 166q246 73 370 73h15q35 -51 96 -192q76 -176 98 -221q78 29 154 155q41 72 125 215q68 109 141 109q35 0 213 -88q154 -76 289 -156q-31 -150 -201 -332q-106 -111 -321 -329q8 -29 73 -111q74 -90 91 -123q111 -215 127 -254q79 -180 79 -286 q0 -21 -2 -39q-90 -45 -274 -131q-154 -68 -272 -68q-18 0 -35 2q-53 80 -105 209l-90 225q-90 -51 -164 -215q-88 -195 -151 -262q-20 -8 -47 -8q-84 0 -234 90q-2 0 -237 160q25 141 170 329q20 25 286 330q-12 12 -116 107q-80 72 -117 127q-55 84 -144 258 q-102 207 -102 260z" />
<glyph unicode="Y" horiz-adv-x="1787" d="M160 1346l321 135q195 80 254 80q55 0 115 -95q31 -47 90 -186q51 -117 74 -141q57 31 209 245q141 201 194 201q64 0 498 -217q-14 -90 -162 -270q-59 -74 -268 -297q-139 -150 -139 -172q16 -565 43 -877q-96 -18 -285 -18q-164 0 -447 14v797q0 41 -104 141 q-139 135 -215 242q-131 186 -178 418z" />
<glyph unicode="Z" horiz-adv-x="1388" d="M49 -125q0 133 14 180q20 57 105 142q117 117 121 122l260 302q139 170 182 274q-80 37 -259 62.5t-245 58.5q-98 51 -98 184q0 53 29 215q33 180 57 221q705 -57 1161 -247q41 -16 51 -93q3 -16 3 -104q0 -205 -35 -311q-39 -129 -164 -267q-53 -59 -354 -381 q49 -20 122 -20q31 0 92.5 5t92.5 5q166 0 166 -186q0 -8 -10.5 -123t-12.5 -188q-18 -31 -100 -37l-885 -66q-35 -2 -66 -2q-129 0 -174 33q-53 39 -53 221z" />
<glyph unicode="[" horiz-adv-x="665" d="M70 309q-1 758 69 1331q260 47 555 62q16 -100 19 -172q-92 -8 -211 -35q-37 -827 -37 -1241q0 -102 6 -309q84 -37 215 -58q2 -25 2 -57q0 -49 -4 -96q-313 12 -588 82q-27 238 -26 493z" />
<glyph unicode="\" horiz-adv-x="958" d="M10 1479q98 8 228 8q63 0 112 -4q283 -537 676 -1573q-78 -10 -176 -10q-88 0 -170 8q-240 684 -670 1571z" />
<glyph unicode="]" horiz-adv-x="675" d="M55 1618q0 39 2 80q279 -8 578 -70q43 -520 43 -1366q0 -250 -19 -479q-231 -53 -589 -62q-8 76 -13 164q98 12 230 43l4 324q8 610 -35 1218q-68 23 -197 46q-4 45 -4 102z" />
<glyph unicode="^" horiz-adv-x="1028" d="M37 774l338 699h350l338 -699h-281l-233 486l-232 -486h-280z" />
<glyph unicode="_" horiz-adv-x="1024" d="M0 -131h1098v-291h-1098v291z" />
<glyph unicode="`" horiz-adv-x="724" d="M217 1442q62 159 111 229q219 -70 448 -205q-47 -129 -90 -209q-287 131 -469 185z" />
<glyph unicode="a" horiz-adv-x="1482" d="M131 -170q141 1075 303 1677q338 -26 676 -26h25q203 -401 284 -643q111 -322 111 -613q0 -137 -25 -196q-37 -90 -205 -185q-63 -37 -256 -123q-41 268 -129 441q-145 -37 -262 -99q-6 -184 -37 -315h-186q-39 0 -135 32t-164 50zM731 604h121v148l-121 28v-176z" />
<glyph unicode="b" horiz-adv-x="1417" d="M33 592v782q444 248 846 248q272 0 411.5 -144.5t139.5 -416.5q0 -408 -277 -569q293 -183 293 -455q0 -266 -264 -361q-150 -53 -418 -53q-51 0 -221 21q-197 23 -328 51q-57 135 -80 244q-31 139 -67 389q-35 231 -35 264zM668 795q16 -6 77 -50q44 -32 82 -32h2 q39 0 95 32q67 40 67 89q0 43 -58.5 82.5t-103.5 39.5q-59 0 -143 -77zM715 176q0 -51 40 -91t91 -40q45 0 87 47t42 92q0 49 -40 85t-89 36q-55 0 -93 -37t-38 -92z" />
<glyph unicode="c" horiz-adv-x="1644" d="M20 625q0 412 334 682q306 249 708 249h3q201 0 383 -65q252 -90 252 -262q0 -121 -21 -223q-29 -145 -82 -146q-27 0 -104 35q-84 35 -113 39q-226 26 -226 29h3q-184 0 -299 -70q-141 -84 -141 -258q0 -328 440 -328q127 0 148 4q72 14 303 99q92 -37 92 -338 q0 -168 -33 -193q-150 -111 -385 -160q-31 -6 -217 -6q-403 0 -711 244q-334 264 -334 668z" />
<glyph unicode="d" horiz-adv-x="1716" d="M78 1268q2 25 10 39q78 109 315 176q188 53 345 53q369 0 686 -272q327 -285 327 -650q0 -391 -274.5 -656t-667.5 -265q-147 0 -694 147l-43 1327q-4 106 -4 101zM717 614q0 -94 39 -178q59 -129 186 -129q106 0 172 115q53 94 53 192q0 90 -41 179q-59 129 -184 129 q-111 0 -174 -111q-51 -88 -51 -197z" />
<glyph unicode="e" horiz-adv-x="1212" d="M43 868v420q213 106 530 170q195 39 562 78q10 -8 28 -33l64 -420q0 -31 -19.5 -65.5t-46.5 -38.5q-178 -25 -256 -39q-160 -31 -256 -88l13 -96q6 -41 45 -41q27 0 101.5 28.5t100.5 28.5q45 0 66 -33q92 -233 92 -262q0 -18 -31 -74l-155 -41q-109 -29 -174 -75v-51 q139 -39 294 -39q27 0 83.5 7t82.5 7q96 0 123 -107q8 -33 8 -139q0 -37 -8 -112.5t-8 -114.5q-344 -33 -496 -33q-76 0 -608 49q-10 6 -31 29q-27 193 -67 651z" />
<glyph unicode="f" horiz-adv-x="1204" d="M104 555v696q137 72 338 121q98 25 353 72q209 37 239 37h160l55 -336v-162q-182 -45 -538 -154q0 -117 30 -163q59 14 244 51q51 -104 125 -324l-307 -112q-74 -31 -74 -58q0 -10 25.5 -82.5t25.5 -122.5v-247h-516q-37 131 -90 360q-70 305 -70 424z" />
<glyph unicode="g" horiz-adv-x="1703" d="M74 578q0 451 352 710q307 227 733 228q129 0 301 -50q217 -61 266 -157v-428q-14 -20 -27 -39t-46 -19q-49 0 -115 43q-193 57 -354 58q-444 0 -445 -359q0 -162 88 -260t246 -98q90 0 143 45q47 40 47 115q0 9 -1 18q-66 20 -269 21q-11 21 -11 69q0 13 1 29l6 119 q164 18 344 18q197 0 367 -23v-727q-369 -178 -701 -178q-356 0 -628 230q-297 250 -297 635z" />
<glyph unicode="h" horiz-adv-x="1767" d="M18 979v414q86 41 295 118q240 92 283 93h106l89 -865q4 -6 8 -14q4 2 26 2q84 0 203 64v73q0 123 -4 328q-6 285 -6 428h125q16 0 200 -37q215 -43 304 -55q31 -18 51 -49q29 -229 61 -605q31 -342 31 -389q0 -23 -2 -98l-14 -530q-2 -104 -60 -123q-117 -37 -284 -53 q-8 0 -289 -21q-55 80 -56 199v442l-30 31q-61 -14 -226 -84v-11q1 -47 15 -127q16 -90 16 -130v-302l-524 -53q-63 0 -123 43q-16 29 -37 84l-94 572q-63 424 -64 655z" />
<glyph unicode="i" horiz-adv-x="708" d="M39 1071q0 74 37 129q41 63 112 64q16 0 37 -4q16 29 17 59q0 25 -13 51q16 -41 25 -59q16 -31 37 -51q4 4 67 22q45 14 68 39l139 -82q51 -37 51 -137q0 -291 -278 -291q25 -18 80 -18q18 0 56 2t56 2q94 0 138 -45q37 -76 65 -322q23 -188 23 -272q0 -268 -60 -342 q-68 -86 -309 -86q-121 0 -223 26q-84 135 -84 611q0 266 26 391q25 27 173 55q-150 23 -203 96q-37 51 -37 162zM92 1585l27 19l47 -72l-27 -16zM139 946q49 -43 92 -43h162q45 134 45 193q-25 65 -155 65h-4q-96 0 -140 -43v-172zM139 1516l27 16l104 -262l-28 -4z M408 1298l61 156l27 -20l-64 -140zM469 1454l88 129l27 -18l-88 -131z" />
<glyph unicode="j" horiz-adv-x="1648" d="M35 -133q0 115 76 487q467 -32 534 -32h4q154 0 164 63q57 348 188 1212q10 10 39 41q160 -33 322 -63q184 -43 311 -98q-27 -567 -47 -770t-84 -523q-76 -387 -211 -481q-72 -49 -254 -59h-258q-272 0 -348 4q-213 12 -395 55q-41 53 -41 164z" />
<glyph unicode="k" horiz-adv-x="1310" d="M88 840v391q66 31 254 100q207 76 244 76h90q12 -66 55 -201l330 244q39 -35 156 -190q139 -186 139 -242q0 -33 -199 -201q-256 -217 -262 -225q45 -45 285 -252q176 -152 176 -172q0 -31 -137 -215q-115 -154 -172 -219q-86 66 -259 188v-172q-68 0 -190 -4 q-92 -2 -190 -8l-77 -4h1q-76 0 -121 106q-33 78 -49 219q-10 92 -19 183q-55 403 -55 598z" />
<glyph unicode="l" horiz-adv-x="1294" d="M215 1210q0 45 51 131q420 82 520 82q78 0 119 -80v-720q0 -88 27 -127q33 -47 117 -47q31 0 89 11t89 11q76 0 129 -55v-535q-170 -33 -449 -57q-217 -18 -311 -19q-158 0 -236 29z" />
<glyph unicode="m" horiz-adv-x="1849" d="M266 -117v1481q14 31 148 70q120 36 162 36h2q131 0 192 -26q76 -33 137 -135q12 -23 146 -275q80 29 116 176q45 172 105 209q47 27 244 27q125 0 149 -4q98 -16 107 -80q39 -287 75 -782q31 -422 31 -508q0 -143 -55 -209q-33 -8 -98.5 -25.5t-98.5 -25.5 q-115 -29 -198 -29q-57 41 -66 98q0 16 -6 164q-4 141 -51 317q-18 -6 -80 -59q-72 -63 -107 -86q-59 39 -188 170q-43 -301 -43 -504q-145 -18 -311 -18t-312 18z" />
<glyph unicode="n" horiz-adv-x="1746" d="M27 1167q0 182 18 222q10 20 293 116q272 92 303 92q45 0 166 -192q68 -109 141 -231q12 16 12 52q0 24 -6 60q-4 23 -4 43q0 51 27 72q377 158 645 182q68 -131 84 -498q18 -131 41 -477l14 -602q2 -53 2 -93q0 -60 -4 -91q-14 -135 -76 -135h-505q-113 164 -351 491 v-40q0 -183 -16 -433q-176 -33 -340 -33q-174 0 -174 -2q0 -1 41 -2q-84 2 -118 37t-40 53q-43 137 -67 303q-31 215 -62 678q-25 369 -24 428z" />
<glyph unicode="o" horiz-adv-x="2082" d="M23 647q0 301 204 535q180 205 484 327q264 106 493 107q912 0 912 -1014q0 -766 -527 -885q-365 -82 -497 -82q-467 0 -764 271q-305 279 -305 741zM766 547q0 -145 90 -244q92 -104 236 -104q172 0 293.5 115.5t121.5 287.5q0 100 -57 221q-78 162 -201 162 q-207 0 -342 -115q-141 -119 -141 -323z" />
<glyph unicode="p" horiz-adv-x="1634" d="M33 936q-1 50 -1 115t1 145l2 154q150 111 491 194q311 78 531 78q334 0 489 -168q150 -160 150 -496q0 -342 -215 -520q-184 -152 -549 -198q-29 -4 -55 -11q-41 -10 -68 -30q-1 -26 -1 -51q0 -141 28 -273l34 -166q0 -47 -65 -59q-47 -8 -260 -8q-25 0 -75 -9.5 t-75 -9.5q-72 0 -139 6q-160 307 -205 942q-16 223 -18 365zM723 754q39 -72 166 -72q186 0 186 125q0 59 -65 96q-57 31 -121 31q-55 0 -166 -70v-110z" />
<glyph unicode="q" horiz-adv-x="2146" d="M18 633q0 477 359 758q314 247 746 247h3q121 0 191 -10q123 -18 278 -78q313 -121 430 -381q78 -172 78 -462q0 -197 -24 -322q-12 -59 -86 -319q68 -53 133 -105q90 -80 90 -129q0 -76 -96 -154q-85 -69 -137 -69h-1q-23 0 -167 74.5t-166 74.5q-27 0 -55.5 -11 t-55.5 -21q-86 -27 -281 -48q-143 -14 -204 -14q-473 0 -748 246q-287 256 -287 723zM745 559q0 -86 80 -199q98 -137 236 -137q35 0 55 27q-18 25 -104 137q-61 80 -62 107q0 16 88 110q94 102 136 103q27 0 108 -82q117 -117 145 -140l25 271q-35 96 -104 159 q-78 72 -174 72q-180 0 -304.5 -124t-124.5 -304z" />
<glyph unicode="r" horiz-adv-x="1654" d="M14 1288q0 35 16.5 77t43.5 56q51 27 153 54q133 33 156 41q316 108 607 108h5q356 0 525 -154q178 -160 178 -512q0 -139 -51 -262q-31 -74 -95 -168q-51 -76 -51 -96q0 -113 69.5 -344t69.5 -344q0 -23 -20.5 -49.5t-40.5 -30.5q-195 -31 -442 -31q-94 0 -133 148 q-14 63 -41 192q-23 98 -50 267q-10 10 -30 10q-33 0 -65 -25.5t-32 -58.5q0 -18 29 -193q33 -205 41 -282q-51 -47 -96 -56q-10 -2 -80 -2q-78 0 -232 -7q-136 -6 -135 -7h2q-86 0 -137 143q-12 37 -43 185q-82 401 -92 540q0 6 -14 330q-14 334 -15 471zM700 803 q0 -51 74 -94q66 -39 123 -39q35 0 94 26q88 40 88 101q0 59 -60.5 99t-121.5 40q-57 0 -123 -39q-74 -43 -74 -94z" />
<glyph unicode="s" horiz-adv-x="1261" d="M59 -207q6 94 25 283q31 250 111 250q16 0 176.5 -72t183.5 -72q27 0 51 25q1 3 1 6q0 38 -99 94q-152 90 -203 135q-76 68 -135 238q-55 158 -55 272q0 246 233 387q182 111 473 154q123 14 371 45q33 -31 63 -197q27 -141 27 -213v-135q-51 -25 -270 -57 q-164 -25 -217 -88q-16 -18 -17 -90q0 -10 -2 -28.5t-2 -27.5q0 -47 88 -100q16 -10 101.5 -24.5t113.5 -26.5q121 -51 199 -199q65 -124 65 -241q0 -238 -262 -355q-180 -80 -395 -80q-78 0 -336 52q-246 49 -289 65z" />
<glyph unicode="t" horiz-adv-x="1914" d="M14 1065q0 94 62 123q100 47 243 100q1167 322 1442 322q229 0 230 -193v-391q-66 -61 -265 -92q-117 -16 -352 -51v-197l101 -866q0 -137 -103 -178q-55 -23 -184 -23q-199 0 -279 32t-125 263q-12 68 -39 307q-35 311 -49 406q-12 80 -80 80q-49 0 -206 -45 q-172 -47 -234 -54q-47 37 -57 76q-2 8 -66 225q-39 133 -39 156z" />
<glyph unicode="u" horiz-adv-x="1904" d="M29 907q0 209 47 310q63 129 239 186q86 27 433 88q41 -33 67 -33q-24 -136 -24 -256v-10q0 -399 247 -490q139 59 195 179q35 76 51 229q16 166 45 231q233 63 369 64q139 0 186 -19q82 -33 82 -147q0 -33 -3 -100.5t-3 -100.5q0 -502 -195 -860q-240 -442 -698 -442 q-307 0 -553 188q-225 174 -362 469q-123 266 -123 514z" />
<glyph unicode="v" horiz-adv-x="1941" d="M25 1309q1 133 151 235q138 93 258 93q11 0 21 -1l288 -20q4 -66 13 -197q16 -199 73 -336q72 -176 195 -176q109 0 172 127q49 100 66 246q0 6 12 154q20 115 100 145q92 35 232 37l-31 -1q0 -1 270 -1q129 -93 129 -367q0 -381 -280 -862q-264 -453 -594 -694 q-47 -35 -154 -35q-27 0 -78 4t-75 4q-211 0 -410 408q-143 297 -264 776q-94 377 -94 461z" />
<glyph unicode="w" horiz-adv-x="1880" d="M264 1204q0 133 53 207q303 82 398 82q76 -53 86 -229q18 -279 35 -349q61 51 188 146q59 -39 188 -170q43 301 43 502q141 18 301 18q172 0 322 -20v-1479q-18 -31 -147 -70q-117 -35 -164 -35q-182 0 -262 78q-59 57 -213 357q-61 -14 -101 -162q-43 -166 -104 -215 q-41 -33 -260 -33q-129 0 -146 2q-104 14 -114 80q-41 274 -76 782q-27 395 -27 508z" />
<glyph unicode="x" horiz-adv-x="1787" d="M131 1311q0 82 285 166q246 73 370 73h15q35 -51 96 -192q76 -176 98 -221q78 29 154 155q41 72 125 215q68 109 141 109q35 0 213 -88q154 -76 289 -156q-31 -150 -201 -332q-106 -111 -321 -329q8 -29 73 -111q74 -90 91 -123q111 -215 127 -254q79 -180 79 -286 q0 -21 -2 -39q-90 -45 -274 -131q-154 -68 -272 -68q-18 0 -35 2q-53 80 -105 209l-90 225q-90 -51 -164 -215q-88 -195 -151 -262q-20 -8 -47 -8q-84 0 -234 90q-2 0 -237 160q25 141 170 329q20 25 286 330q-12 12 -116 107q-80 72 -117 127q-55 84 -144 258 q-102 207 -102 260z" />
<glyph unicode="y" horiz-adv-x="1787" d="M160 1346l321 135q195 80 254 80q55 0 115 -95q31 -47 90 -186q51 -117 74 -141q57 31 209 245q141 201 194 201q64 0 498 -217q-14 -90 -162 -270q-59 -74 -268 -297q-139 -150 -139 -172q16 -565 43 -877q-96 -18 -285 -18q-164 0 -447 14v797q0 41 -104 141 q-139 135 -215 242q-131 186 -178 418z" />
<glyph unicode="z" horiz-adv-x="1386" d="M49 -125q0 133 14 180q20 57 105 142q117 117 121 122l260 302q139 170 182 274q-80 37 -259 62.5t-245 58.5q-98 51 -98 184q0 53 29 215q33 180 57 221q705 -57 1161 -247q41 -16 51 -93q3 -16 3 -104q0 -205 -35 -311q-39 -129 -164 -267q-53 -59 -354 -381 q49 -20 122 -20q31 0 92.5 5t92.5 5q166 0 166 -186q0 -8 -10.5 -123t-12.5 -188q-18 -31 -100 -37l-885 -66q-35 -2 -66 -2q-129 0 -174 33q-53 39 -53 221z" />
<glyph unicode="{" horiz-adv-x="749" d="M25 735q94 86 133 178q20 49 55 220q72 352 205 555q240 -14 385 -31q-98 -117 -152 -266q-37 -104 -71 -301q-39 -219 -148 -357q102 -100 152 -264q27 -90 57 -305q39 -266 113 -426q-218 -27 -312 -27h-39q-39 102 -92 412q-41 238 -82 338q-61 150 -204 274z" />
<glyph unicode="|" horiz-adv-x="720" d="M391 -367v1831h318v-1831h-318z" />
<glyph unicode="}" horiz-adv-x="788" d="M18 -231q92 111 132 194q35 76 65 223q74 356 219 543q-55 96 -78 195q-14 59 -30 211q-33 297 -193 526q244 12 367 14q96 -160 143 -401q55 -283 59 -295q43 -166 125 -270q-104 -104 -168 -254q-37 -88 -92 -291q-63 -231 -186 -443q-207 6 -363 48z" />
<glyph unicode="~" horiz-adv-x="1267" d="M205 649q121 295 323 295q74 0 221.5 -66.5t198.5 -66.5q88 0 164 139l154 -129q-59 -141 -125 -207q-86 -84 -219 -84q-63 0 -208 64.5t-200 64.5q-78 0 -156 -137z" />
<glyph unicode="&#xad;" d="M0 647q0 57 6 250q141 6 250 6q156 0 266 -12q4 -61 4 -164q0 -102 -6 -225q-238 37 -395 37q-16 0 -123 -4q-2 55 -2 112z" />
<glyph unicode="&#xd6;" horiz-adv-x="872" />
<glyph unicode="&#x2000;" horiz-adv-x="857" />
<glyph unicode="&#x2001;" horiz-adv-x="1714" />
<glyph unicode="&#x2002;" horiz-adv-x="857" />
<glyph unicode="&#x2003;" horiz-adv-x="1714" />
<glyph unicode="&#x2004;" horiz-adv-x="571" />
<glyph unicode="&#x2005;" horiz-adv-x="428" />
<glyph unicode="&#x2006;" horiz-adv-x="285" />
<glyph unicode="&#x2007;" horiz-adv-x="285" />
<glyph unicode="&#x2008;" horiz-adv-x="214" />
<glyph unicode="&#x2009;" horiz-adv-x="342" />
<glyph unicode="&#x200a;" horiz-adv-x="95" />
<glyph unicode="&#x2010;" d="M0 647q0 57 6 250q141 6 250 6q156 0 266 -12q4 -61 4 -164q0 -102 -6 -225q-238 37 -395 37q-16 0 -123 -4q-2 55 -2 112z" />
<glyph unicode="&#x2011;" d="M0 647q0 57 6 250q141 6 250 6q156 0 266 -12q4 -61 4 -164q0 -102 -6 -225q-238 37 -395 37q-16 0 -123 -4q-2 55 -2 112z" />
<glyph unicode="&#x2012;" d="M0 647q0 57 6 250q141 6 250 6q156 0 266 -12q4 -61 4 -164q0 -102 -6 -225q-238 37 -395 37q-16 0 -123 -4q-2 55 -2 112z" />
<glyph unicode="&#x2013;" horiz-adv-x="1044" d="M0 647q0 57 12 250q274 6 486 6q304 0 518 -12q8 -61 8 -164q0 -102 -12 -225q-463 37 -769 37q-31 0 -239 -4q-4 55 -4 112z" />
<glyph unicode="&#x2014;" horiz-adv-x="2068" d="M0 647q0 57 23 250q549 6 974 6q607 0 1035 -12q16 -61 16 -164q0 -102 -23 -225q-927 37 -1538 37q-63 0 -479 -4q-8 55 -8 112z" />
<glyph unicode="&#x202f;" horiz-adv-x="342" />
<glyph unicode="&#x205f;" horiz-adv-x="428" />
<glyph unicode="&#x25fc;" horiz-adv-x="1617" d="M0 0v1618h1618v-1618h-1618z" />
</font>
</defs>
</svg>
